<svg xmlns="http://www.w3.org/2000/svg" viewBox="0 0 1600 1361" preserveAspectRatio="xMidYMid meet"><rect width="100%" height="100%" fill="#100f0d"/>
<g stroke="#785420" stroke-width="0.4" fill="none" stroke-dasharray="2,3"><line x1="318.4" y1="570.7" x2="221.5" y2="1213.2"/><line x1="352.9" y1="814.5" x2="363.4" y2="806.7"/><line x1="363.4" y1="806.7" x2="1214.1" y2="935.1"/><line x1="339.3" y1="905.0" x2="352.9" y2="814.5"/><line x1="373.9" y1="737.0" x2="1229.2" y2="866.0"/><line x1="366.2" y1="726.5" x2="373.9" y2="737.0"/><line x1="366.2" y1="726.5" x2="388.1" y2="581.2"/><line x1="1239.7" y1="858.3" x2="1229.2" y2="866.0"/><line x1="1267.0" y1="677.3" x2="1239.7" y2="858.3"/><line x1="1259.2" y1="666.8" x2="1267.0" y2="677.3"/><line x1="400.4" y1="537.2" x2="1259.2" y2="666.8"/><line x1="390.2" y1="481.9" x2="390.2" y2="481.9"/><line x1="390.2" y1="481.9" x2="390.2" y2="481.8"/><line x1="390.2" y1="481.8" x2="390.2" y2="481.7"/><line x1="390.2" y1="481.7" x2="390.1" y2="481.6"/><line x1="390.1" y1="481.6" x2="390.1" y2="481.5"/><line x1="390.1" y1="481.5" x2="390.1" y2="481.5"/><line x1="390.1" y1="481.5" x2="390.1" y2="481.4"/><line x1="390.1" y1="481.4" x2="390.1" y2="481.3"/><line x1="400.4" y1="537.2" x2="391.8" y2="544.4"/><line x1="1328.2" y1="903.7" x2="1327.5" y2="897.9"/><line x1="1327.5" y1="897.9" x2="1326.3" y2="892.1"/><line x1="1326.3" y1="892.1" x2="1324.5" y2="886.5"/><line x1="1324.5" y1="886.5" x2="1322.2" y2="881.1"/><line x1="1322.2" y1="881.1" x2="1319.4" y2="875.9"/><line x1="1319.4" y1="875.9" x2="1316.1" y2="871.0"/><line x1="1316.1" y1="871.0" x2="1312.3" y2="866.5"/><line x1="1312.3" y1="866.5" x2="1308.1" y2="862.4"/><line x1="1308.1" y1="862.4" x2="1303.5" y2="858.7"/><line x1="1303.5" y1="858.7" x2="1298.6" y2="855.5"/><line x1="1298.6" y1="855.5" x2="1293.4" y2="852.7"/><line x1="1293.4" y1="852.7" x2="1288.0" y2="850.5"/><line x1="1288.0" y1="850.5" x2="1282.3" y2="848.8"/><line x1="1282.3" y1="848.8" x2="1276.6" y2="847.7"/><line x1="1276.6" y1="847.7" x2="1270.7" y2="847.1"/><line x1="1270.7" y1="847.1" x2="1264.8" y2="847.1"/><line x1="1264.8" y1="847.1" x2="1259.0" y2="847.7"/><line x1="1259.0" y1="847.7" x2="1253.2" y2="848.9"/><line x1="1253.2" y1="848.9" x2="1247.6" y2="850.6"/><line x1="1247.6" y1="850.6" x2="1242.1" y2="852.8"/><line x1="1242.1" y1="852.8" x2="1236.9" y2="855.6"/><line x1="1236.9" y1="855.6" x2="1232.0" y2="858.9"/><line x1="1232.0" y1="858.9" x2="1227.5" y2="862.6"/><line x1="1227.5" y1="862.6" x2="1223.3" y2="866.7"/><line x1="1223.3" y1="866.7" x2="1219.5" y2="871.3"/><line x1="1219.5" y1="871.3" x2="1216.2" y2="876.1"/><line x1="1216.2" y1="876.1" x2="1213.4" y2="881.3"/><line x1="1213.4" y1="881.3" x2="1211.2" y2="886.7"/><line x1="1211.2" y1="886.7" x2="1209.4" y2="892.3"/><line x1="1209.4" y1="892.3" x2="1208.2" y2="898.1"/><line x1="1208.2" y1="898.1" x2="1207.6" y2="904.0"/><line x1="1207.6" y1="904.0" x2="1207.5" y2="909.8"/><line x1="1207.5" y1="909.8" x2="1208.0" y2="915.7"/><line x1="1208.0" y1="915.7" x2="1209.1" y2="921.5"/><line x1="1209.1" y1="921.5" x2="1210.7" y2="927.1"/><line x1="1210.7" y1="927.1" x2="1212.9" y2="932.6"/><line x1="1212.9" y1="932.6" x2="1215.6" y2="937.8"/><line x1="1215.6" y1="937.8" x2="1218.8" y2="942.8"/><line x1="1218.8" y1="942.8" x2="1222.5" y2="947.4"/><line x1="1222.5" y1="947.4" x2="1226.6" y2="951.6"/><line x1="1226.6" y1="951.6" x2="1231.1" y2="955.4"/><line x1="1231.1" y1="955.4" x2="1235.9" y2="958.8"/><line x1="1235.9" y1="958.8" x2="1241.0" y2="961.7"/><line x1="1241.0" y1="961.7" x2="1246.4" y2="964.0"/><line x1="1246.4" y1="964.0" x2="1252.0" y2="965.8"/><line x1="1252.0" y1="965.8" x2="1257.8" y2="967.1"/><line x1="1257.8" y1="967.1" x2="1263.6" y2="967.8"/><line x1="1263.6" y1="967.8" x2="1269.5" y2="967.9"/><line x1="1269.5" y1="967.9" x2="1275.3" y2="967.5"/><line x1="1275.3" y1="967.5" x2="1281.1" y2="966.5"/><line x1="1281.1" y1="966.5" x2="1286.8" y2="964.9"/><line x1="1286.8" y1="964.9" x2="1292.3" y2="962.8"/><line x1="1292.3" y1="962.8" x2="1297.6" y2="960.2"/><line x1="1297.6" y1="960.2" x2="1302.5" y2="957.0"/><line x1="1302.5" y1="957.0" x2="1307.2" y2="953.4"/><line x1="1307.2" y1="953.4" x2="1311.5" y2="949.4"/><line x1="1311.5" y1="949.4" x2="1315.3" y2="944.9"/><line x1="1315.3" y1="944.9" x2="1318.7" y2="940.2"/><line x1="1318.7" y1="940.2" x2="1321.7" y2="935.1"/><line x1="1321.7" y1="935.1" x2="1324.1" y2="929.7"/><line x1="1324.1" y1="929.7" x2="1326.0" y2="924.1"/><line x1="1326.0" y1="924.1" x2="1327.3" y2="918.4"/><line x1="1327.3" y1="918.4" x2="1328.1" y2="912.5"/><line x1="1328.1" y1="912.5" x2="1328.3" y2="906.7"/><line x1="1310.1" y1="864.2" x2="1374.5" y2="436.7"/><line x1="1461.4" y1="440.5" x2="1469.1" y2="451.0"/><line x1="1385.0" y1="429.0" x2="1461.4" y2="440.5"/><line x1="1374.5" y1="436.7" x2="1385.0" y2="429.0"/><line x1="377.2" y1="330.2" x2="386.4" y2="269.3"/><line x1="386.4" y1="269.3" x2="396.8" y2="261.6"/><line x1="396.8" y1="261.6" x2="1094.2" y2="366.8"/><line x1="1094.2" y1="366.8" x2="1105.5" y2="368.8"/><line x1="1105.5" y1="368.8" x2="1241.5" y2="396.8"/><line x1="1241.5" y1="396.8" x2="1256.5" y2="399.4"/><line x1="1256.5" y1="399.4" x2="1298.6" y2="405.8"/><line x1="1298.6" y1="405.8" x2="1306.3" y2="416.3"/><line x1="1306.3" y1="416.3" x2="1280.2" y2="589.3"/><line x1="1280.2" y1="589.3" x2="1269.7" y2="597.0"/><line x1="1269.7" y1="597.0" x2="399.3" y2="465.7"/><line x1="399.3" y1="465.7" x2="385.8" y2="452.3"/><line x1="385.8" y1="452.3" x2="381.6" y2="432.5"/><line x1="320.1" y1="489.5" x2="315.3" y2="458.7"/><line x1="315.3" y1="458.7" x2="307.4" y2="428.6"/><line x1="307.4" y1="428.6" x2="296.7" y2="399.4"/><line x1="296.7" y1="399.4" x2="283.2" y2="371.4"/><line x1="283.2" y1="371.4" x2="266.9" y2="344.8"/><line x1="266.9" y1="344.8" x2="248.2" y2="320.0"/><line x1="248.2" y1="320.0" x2="227.1" y2="297.1"/><line x1="227.1" y1="297.1" x2="203.9" y2="276.4"/><line x1="203.9" y1="276.4" x2="178.7" y2="258.1"/><line x1="178.7" y1="258.1" x2="151.9" y2="242.3"/><line x1="151.9" y1="242.3" x2="123.7" y2="229.2"/><line x1="123.7" y1="229.2" x2="94.3" y2="219.0"/><line x1="94.3" y1="219.0" x2="64.1" y2="211.7"/><line x1="64.1" y1="211.7" x2="33.3" y2="207.3"/><line x1="33.3" y1="207.3" x2="2.2" y2="206.1"/><line x1="2.2" y1="206.1" x2="-28.8" y2="207.8"/><line x1="-24.7" y1="839.4" x2="6.4" y2="840.7"/><line x1="6.4" y1="840.7" x2="37.4" y2="839.0"/><line x1="37.4" y1="839.0" x2="68.2" y2="834.3"/><line x1="68.2" y1="834.3" x2="98.3" y2="826.6"/><line x1="98.3" y1="826.6" x2="127.5" y2="816.0"/><line x1="127.5" y1="816.0" x2="155.6" y2="802.5"/><line x1="155.6" y1="802.5" x2="182.2" y2="786.4"/><line x1="182.2" y1="786.4" x2="207.1" y2="767.7"/><line x1="207.1" y1="767.7" x2="230.0" y2="746.7"/><line x1="230.0" y1="746.7" x2="250.8" y2="723.6"/><line x1="250.8" y1="723.6" x2="269.2" y2="698.5"/><line x1="269.2" y1="698.5" x2="285.1" y2="671.7"/><line x1="285.1" y1="671.7" x2="298.3" y2="643.5"/><line x1="298.3" y1="643.5" x2="308.6" y2="614.2"/><line x1="308.6" y1="614.2" x2="316.1" y2="584.0"/><line x1="316.1" y1="584.0" x2="320.5" y2="553.2"/><line x1="320.5" y1="553.2" x2="321.9" y2="522.1"/><line x1="978.0" y1="352.4" x2="978.0" y2="352.3"/><line x1="978.0" y1="352.3" x2="978.0" y2="352.2"/><line x1="978.0" y1="352.2" x2="978.0" y2="352.2"/><line x1="978.0" y1="352.2" x2="978.0" y2="352.1"/><line x1="978.0" y1="352.1" x2="978.0" y2="352.0"/><line x1="978.0" y1="352.0" x2="978.0" y2="351.9"/><line x1="978.0" y1="351.9" x2="978.0" y2="351.8"/><line x1="978.0" y1="351.8" x2="978.0" y2="351.8"/><line x1="316.0" y1="263.4" x2="307.5" y2="319.7"/><line x1="418.6" y1="219.6" x2="418.5" y2="219.2"/><line x1="418.5" y1="219.2" x2="418.5" y2="218.7"/><line x1="418.5" y1="218.7" x2="418.5" y2="218.2"/><line x1="418.5" y1="218.2" x2="418.5" y2="217.8"/><line x1="418.5" y1="217.8" x2="418.5" y2="217.3"/><line x1="418.5" y1="217.3" x2="418.5" y2="216.9"/><line x1="418.5" y1="216.9" x2="418.4" y2="216.4"/><line x1="418.4" y1="216.4" x2="418.4" y2="216.0"/><line x1="411.9" y1="192.6" x2="1104.7" y2="297.1"/><line x1="1348.8" y1="574.1" x2="1348.8" y2="574.1"/><line x1="1348.8" y1="574.1" x2="1348.8" y2="574.1"/><line x1="1348.8" y1="574.1" x2="1348.8" y2="574.0"/><line x1="1348.8" y1="574.0" x2="1348.8" y2="574.0"/><line x1="1348.8" y1="574.0" x2="1348.8" y2="574.0"/><line x1="1348.8" y1="574.0" x2="1348.8" y2="573.9"/><line x1="1348.8" y1="573.9" x2="1348.8" y2="573.9"/><line x1="1348.8" y1="573.9" x2="1348.8" y2="573.9"/><line x1="1119.6" y1="299.7" x2="1255.7" y2="327.7"/><line x1="1267.0" y1="329.7" x2="1287.3" y2="332.8"/><line x1="1515.1" y1="98.5" x2="1515.1" y2="98.5"/><line x1="1515.1" y1="98.5" x2="1515.1" y2="98.4"/><line x1="1515.1" y1="98.4" x2="1515.1" y2="98.4"/><line x1="1515.1" y1="98.4" x2="1515.1" y2="98.4"/><line x1="1515.1" y1="98.4" x2="1515.1" y2="98.4"/><line x1="1515.1" y1="98.4" x2="1515.1" y2="98.3"/><line x1="1515.1" y1="98.3" x2="1515.1" y2="98.3"/><line x1="1515.1" y1="98.3" x2="1515.1" y2="98.3"/><line x1="258.9" y1="67.6" x2="1303.5" y2="225.2"/><line x1="186.1" y1="550.7" x2="215.0" y2="359.0"/><line x1="141.8" y1="1201.2" x2="240.2" y2="548.7"/><line x1="240.2" y1="548.7" x2="187.6" y2="540.8"/><line x1="303.9" y1="357.1" x2="217.2" y2="344.0"/><line x1="303.7" y1="372.4" x2="215.0" y2="359.0"/><line x1="977.9" y1="351.5" x2="977.9" y2="351.3"/><line x1="977.9" y1="351.3" x2="977.9" y2="351.1"/><line x1="977.9" y1="351.1" x2="977.9" y2="351.0"/><line x1="977.9" y1="351.0" x2="977.9" y2="350.8"/><line x1="977.9" y1="350.8" x2="977.9" y2="350.6"/><line x1="977.9" y1="350.6" x2="977.9" y2="350.5"/><line x1="977.9" y1="350.5" x2="977.9" y2="350.3"/><line x1="977.9" y1="350.3" x2="977.9" y2="350.1"/><line x1="217.2" y1="344.0" x2="258.9" y2="67.6"/><line x1="221.5" y1="1213.2" x2="141.8" y2="1201.2"/></g>
<g stroke="#52503f" stroke-width="0.5" fill="none" stroke-dasharray="5,5"><line x1="353.2" y1="576.0" x2="233.8" y2="1367.9"/><line x1="324.7" y1="765.2" x2="1267.9" y2="907.5"/><line x1="356.0" y1="494.9" x2="1308.4" y2="638.5"/><line x1="355.1" y1="485.7" x2="349.8" y2="451.6"/><line x1="349.8" y1="451.6" x2="341.1" y2="418.1"/><line x1="341.1" y1="418.1" x2="329.1" y2="385.6"/><line x1="329.1" y1="385.6" x2="314.1" y2="354.5"/><line x1="314.1" y1="354.5" x2="296.1" y2="325.0"/><line x1="296.1" y1="325.0" x2="275.2" y2="297.4"/><line x1="275.2" y1="297.4" x2="251.8" y2="272.0"/><line x1="251.8" y1="272.0" x2="226.0" y2="249.0"/><line x1="226.0" y1="249.0" x2="198.1" y2="228.6"/><line x1="198.1" y1="228.6" x2="168.3" y2="211.1"/><line x1="168.3" y1="211.1" x2="136.9" y2="196.5"/><line x1="136.9" y1="196.5" x2="104.3" y2="185.2"/><line x1="104.3" y1="185.2" x2="70.7" y2="177.0"/><line x1="70.7" y1="177.0" x2="36.5" y2="172.2"/><line x1="36.5" y1="172.2" x2="1.9" y2="170.8"/><line x1="1.9" y1="170.8" x2="-32.6" y2="172.8"/><line x1="-28.0" y1="874.5" x2="6.5" y2="876.0"/><line x1="6.5" y1="876.0" x2="41.1" y2="874.1"/><line x1="41.1" y1="874.1" x2="75.2" y2="868.8"/><line x1="75.2" y1="868.8" x2="108.7" y2="860.3"/><line x1="108.7" y1="860.3" x2="141.2" y2="848.5"/><line x1="141.2" y1="848.5" x2="172.4" y2="833.5"/><line x1="172.4" y1="833.5" x2="201.9" y2="815.6"/><line x1="201.9" y1="815.6" x2="229.6" y2="794.9"/><line x1="229.6" y1="794.9" x2="255.1" y2="771.5"/><line x1="255.1" y1="771.5" x2="278.2" y2="745.8"/><line x1="278.2" y1="745.8" x2="298.6" y2="717.9"/><line x1="298.6" y1="717.9" x2="316.3" y2="688.2"/><line x1="316.3" y1="688.2" x2="330.9" y2="656.9"/><line x1="330.9" y1="656.9" x2="342.4" y2="624.3"/><line x1="342.4" y1="624.3" x2="350.7" y2="590.7"/><line x1="350.7" y1="590.7" x2="355.6" y2="556.5"/><line x1="355.6" y1="556.5" x2="357.1" y2="521.9"/><line x1="942.8" y1="354.2" x2="942.8" y2="354.0"/><line x1="942.8" y1="354.0" x2="942.8" y2="353.7"/><line x1="942.8" y1="353.7" x2="942.7" y2="353.5"/><line x1="942.7" y1="353.5" x2="942.7" y2="353.2"/><line x1="942.7" y1="353.2" x2="942.7" y2="353.0"/><line x1="942.7" y1="353.0" x2="942.7" y2="352.7"/><line x1="942.7" y1="352.7" x2="942.7" y2="352.5"/><line x1="942.7" y1="352.5" x2="942.7" y2="352.2"/><line x1="358.1" y1="220.1" x2="342.3" y2="325.0"/><line x1="358.1" y1="220.1" x2="1099.4" y2="331.9"/><line x1="1112.5" y1="334.3" x2="1248.6" y2="362.2"/><line x1="1313.6" y1="575.0" x2="1313.6" y2="574.9"/><line x1="1313.6" y1="574.9" x2="1313.6" y2="574.9"/><line x1="1313.6" y1="574.9" x2="1313.6" y2="574.9"/><line x1="1313.6" y1="574.9" x2="1313.6" y2="574.8"/><line x1="1313.6" y1="574.8" x2="1313.6" y2="574.8"/><line x1="1313.6" y1="574.8" x2="1313.6" y2="574.8"/><line x1="1313.6" y1="574.8" x2="1313.6" y2="574.8"/><line x1="1313.6" y1="574.8" x2="1313.6" y2="574.7"/><line x1="1550.3" y1="95.7" x2="1550.3" y2="95.7"/><line x1="1550.3" y1="95.7" x2="1550.3" y2="95.7"/><line x1="1550.3" y1="95.7" x2="1550.3" y2="95.6"/><line x1="1550.3" y1="95.6" x2="1550.3" y2="95.6"/><line x1="1550.3" y1="95.6" x2="1550.3" y2="95.6"/><line x1="1550.3" y1="95.6" x2="1550.3" y2="95.6"/><line x1="1550.3" y1="95.6" x2="1550.3" y2="95.5"/><line x1="1550.3" y1="95.5" x2="1550.3" y2="95.5"/><line x1="1261.8" y1="364.6" x2="1517.1" y2="403.1"/><line x1="1347.8" y1="377.5" x2="1267.9" y2="907.5"/></g>
<g stroke="#d9a437" stroke-width="1" fill="none"><line x1="1540.7" y1="381.2" x2="1436.8" y2="1070.5"/><line x1="1520.8" y1="378.2" x2="1416.9" y2="1067.5"/><line x1="1479.7" y1="448.4" x2="1387.0" y2="1063.0"/><line x1="1436.8" y1="1070.5" x2="329.3" y2="903.5"/><line x1="469.4" y1="374.4" x2="486.0" y2="264.9"/><line x1="521.4" y1="382.3" x2="537.9" y2="272.7"/><line x1="573.3" y1="390.1" x2="589.8" y2="280.5"/><line x1="625.2" y1="397.9" x2="641.7" y2="288.4"/><line x1="677.1" y1="405.8" x2="693.7" y2="296.2"/><line x1="729.1" y1="413.6" x2="745.6" y2="304.0"/><line x1="781.0" y1="421.4" x2="797.5" y2="311.9"/><line x1="832.9" y1="429.3" x2="849.4" y2="319.7"/><line x1="884.8" y1="437.1" x2="901.3" y2="327.5"/><line x1="936.7" y1="444.9" x2="953.3" y2="335.4"/><line x1="988.7" y1="452.8" x2="1005.2" y2="343.2"/><line x1="1040.6" y1="460.6" x2="1057.1" y2="351.0"/><line x1="1092.5" y1="468.4" x2="1109.0" y2="359.2"/><line x1="329.3" y1="903.5" x2="343.6" y2="808.8"/><line x1="384.1" y1="911.7" x2="400.6" y2="802.2"/><line x1="434.5" y1="919.3" x2="451.0" y2="809.8"/><line x1="484.9" y1="926.9" x2="501.4" y2="817.4"/><line x1="535.3" y1="934.5" x2="551.8" y2="825.0"/><line x1="585.7" y1="942.1" x2="602.2" y2="832.6"/><line x1="636.1" y1="949.8" x2="652.6" y2="840.2"/><line x1="686.5" y1="957.4" x2="703.0" y2="847.8"/><line x1="736.9" y1="965.0" x2="753.5" y2="855.4"/><line x1="787.3" y1="972.6" x2="803.9" y2="863.0"/><line x1="837.8" y1="980.2" x2="854.3" y2="870.6"/><line x1="888.2" y1="987.8" x2="904.7" y2="878.2"/><line x1="938.6" y1="995.4" x2="955.1" y2="885.8"/><line x1="989.0" y1="1003.0" x2="1005.5" y2="893.4"/><line x1="1039.4" y1="1010.6" x2="1055.9" y2="901.0"/><line x1="1089.8" y1="1018.2" x2="1106.3" y2="908.6"/><line x1="1140.2" y1="1025.8" x2="1156.7" y2="916.2"/><line x1="1190.6" y1="1033.4" x2="1207.1" y2="923.8"/><line x1="130.4" y1="1209.7" x2="228.7" y2="557.2"/><line x1="208.7" y1="1297.9" x2="210.6" y2="1285.4"/><line x1="191.5" y1="1310.6" x2="208.7" y2="1297.9"/><line x1="191.5" y1="1310.6" x2="59.3" y2="1290.6"/><line x1="230.0" y1="1224.7" x2="130.4" y2="1209.7"/><line x1="238.2" y1="1169.9" x2="138.6" y2="1154.9"/><line x1="224.4" y1="194.9" x2="308.7" y2="210.6"/><line x1="408.5" y1="219.8" x2="408.5" y2="219.4"/><line x1="408.5" y1="219.4" x2="408.5" y2="219.0"/><line x1="408.5" y1="219.0" x2="408.5" y2="218.6"/><line x1="408.5" y1="218.6" x2="408.4" y2="218.2"/><line x1="408.4" y1="218.2" x2="408.4" y2="217.8"/><line x1="408.4" y1="217.8" x2="408.4" y2="217.4"/><line x1="408.4" y1="217.4" x2="408.4" y2="217.0"/><line x1="408.4" y1="217.0" x2="408.4" y2="216.6"/><line x1="323.0" y1="184.0" x2="237.2" y2="110.2"/><line x1="230.6" y1="1199.5" x2="230.6" y2="1199.4"/><line x1="230.6" y1="1199.4" x2="230.5" y2="1199.3"/><line x1="230.5" y1="1199.3" x2="230.5" y2="1199.3"/><line x1="230.5" y1="1199.3" x2="230.5" y2="1199.2"/><line x1="230.5" y1="1199.2" x2="230.5" y2="1199.1"/><line x1="230.5" y1="1199.1" x2="230.5" y2="1199.0"/><line x1="230.5" y1="1199.0" x2="230.5" y2="1199.0"/><line x1="230.5" y1="1199.0" x2="230.5" y2="1198.9"/><line x1="410.8" y1="1295.7" x2="410.8" y2="1295.7"/><line x1="410.8" y1="1295.7" x2="410.8" y2="1295.6"/><line x1="410.8" y1="1295.6" x2="410.8" y2="1295.5"/><line x1="410.8" y1="1295.5" x2="410.8" y2="1295.4"/><line x1="410.8" y1="1295.4" x2="410.8" y2="1295.4"/><line x1="410.8" y1="1295.4" x2="410.8" y2="1295.3"/><line x1="410.8" y1="1295.3" x2="410.8" y2="1295.2"/><line x1="410.8" y1="1295.2" x2="410.8" y2="1295.2"/><line x1="1285.8" y1="342.7" x2="1540.7" y2="381.2"/><line x1="1540.7" y1="381.2" x2="1436.8" y2="1070.5"/><line x1="1436.8" y1="1070.5" x2="329.3" y2="903.5"/><line x1="329.3" y1="903.5" x2="258.7" y2="1371.7"/><line x1="258.7" y1="1371.7" x2="51.8" y2="1340.4"/><line x1="51.8" y1="1340.4" x2="250.0" y2="25.5"/><line x1="250.0" y1="25.5" x2="1309.5" y2="185.3"/><line x1="350.0" y1="170.4" x2="324.4" y2="62.2"/><line x1="384.0" y1="176.9" x2="394.6" y2="72.8"/><line x1="1358.4" y1="475.9" x2="1472.9" y2="493.2"/><line x1="1350.9" y1="525.7" x2="1465.4" y2="543.0"/><line x1="1343.4" y1="575.6" x2="1457.9" y2="592.8"/><line x1="1335.9" y1="625.4" x2="1450.4" y2="642.6"/><line x1="1328.4" y1="675.2" x2="1442.9" y2="692.4"/><line x1="1320.9" y1="725.0" x2="1435.4" y2="742.3"/><line x1="1313.4" y1="774.8" x2="1427.9" y2="792.1"/><line x1="1305.9" y1="824.6" x2="1420.4" y2="841.9"/><line x1="1311.0" y1="881.4" x2="1412.1" y2="896.7"/><line x1="1187.7" y1="594.9" x2="1219.8" y2="382.0"/><line x1="1136.1" y1="587.1" x2="1152.6" y2="477.5"/><line x1="1084.4" y1="579.3" x2="1101.0" y2="469.7"/><line x1="1032.8" y1="571.5" x2="1049.3" y2="461.9"/><line x1="981.2" y1="563.7" x2="997.7" y2="454.1"/><line x1="929.5" y1="555.9" x2="946.1" y2="446.3"/><line x1="877.9" y1="548.1" x2="894.4" y2="438.6"/><line x1="826.3" y1="540.3" x2="842.8" y2="430.8"/><line x1="774.6" y1="532.6" x2="791.2" y2="423.0"/><line x1="723.0" y1="524.8" x2="739.5" y2="415.2"/><line x1="671.4" y1="517.0" x2="687.9" y2="407.4"/><line x1="619.7" y1="509.2" x2="636.3" y2="399.6"/><line x1="568.1" y1="501.4" x2="584.6" y2="391.8"/><line x1="516.5" y1="493.6" x2="533.0" y2="384.0"/><line x1="464.8" y1="485.8" x2="481.4" y2="376.2"/><line x1="413.2" y1="478.0" x2="429.7" y2="368.5"/><line x1="1144.5" y1="476.3" x2="1160.5" y2="369.8"/><line x1="1200.5" y1="510.2" x2="1300.1" y2="525.2"/><line x1="328.3" y1="572.2" x2="230.0" y2="1224.7"/><line x1="1210.0" y1="447.0" x2="1309.6" y2="462.0"/><line x1="826.2" y1="815.4" x2="859.2" y2="596.2"/><line x1="878.4" y1="823.3" x2="911.5" y2="604.1"/><line x1="930.7" y1="831.2" x2="963.7" y2="612.0"/><line x1="982.9" y1="839.1" x2="1016.0" y2="619.9"/><line x1="1035.2" y1="846.9" x2="1068.2" y2="627.8"/><line x1="1087.4" y1="854.8" x2="1120.5" y2="635.7"/><line x1="1139.7" y1="862.7" x2="1172.7" y2="643.5"/><line x1="1191.9" y1="870.6" x2="1225.0" y2="651.4"/><line x1="773.9" y1="807.5" x2="807.0" y2="588.4"/><line x1="721.7" y1="799.6" x2="754.7" y2="580.5"/><line x1="669.4" y1="791.8" x2="702.4" y2="572.6"/><line x1="617.2" y1="783.9" x2="650.2" y2="564.7"/><line x1="564.9" y1="776.0" x2="597.9" y2="556.8"/><line x1="512.7" y1="768.1" x2="545.7" y2="549.0"/><line x1="460.4" y1="760.2" x2="493.4" y2="541.1"/><line x1="408.2" y1="752.4" x2="441.2" y2="533.2"/><line x1="1318.1" y1="904.4" x2="1317.6" y2="899.5"/><line x1="1317.6" y1="899.5" x2="1316.6" y2="894.7"/><line x1="1316.6" y1="894.7" x2="1315.1" y2="890.1"/><line x1="1315.1" y1="890.1" x2="1313.2" y2="885.5"/><line x1="1313.2" y1="885.5" x2="1310.9" y2="881.2"/><line x1="1310.9" y1="881.2" x2="1308.1" y2="877.2"/><line x1="1308.1" y1="877.2" x2="1305.0" y2="873.4"/><line x1="1305.0" y1="873.4" x2="1301.5" y2="870.0"/><line x1="1301.5" y1="870.0" x2="1297.6" y2="866.9"/><line x1="1297.6" y1="866.9" x2="1293.6" y2="864.2"/><line x1="1293.6" y1="864.2" x2="1289.2" y2="861.9"/><line x1="1289.2" y1="861.9" x2="1284.7" y2="860.0"/><line x1="1284.7" y1="860.0" x2="1280.0" y2="858.6"/><line x1="1280.0" y1="858.6" x2="1275.2" y2="857.7"/><line x1="1275.2" y1="857.7" x2="1270.3" y2="857.2"/><line x1="1270.3" y1="857.2" x2="1265.4" y2="857.2"/><line x1="1265.4" y1="857.2" x2="1260.5" y2="857.7"/><line x1="1260.5" y1="857.7" x2="1255.7" y2="858.6"/><line x1="1255.7" y1="858.6" x2="1251.0" y2="860.1"/><line x1="1251.0" y1="860.1" x2="1246.5" y2="861.9"/><line x1="1246.5" y1="861.9" x2="1242.1" y2="864.2"/><line x1="1242.1" y1="864.2" x2="1238.0" y2="866.9"/><line x1="1238.0" y1="866.9" x2="1234.2" y2="870.0"/><line x1="1234.2" y1="870.0" x2="1230.7" y2="873.5"/><line x1="1230.7" y1="873.5" x2="1227.6" y2="877.3"/><line x1="1227.6" y1="877.3" x2="1224.9" y2="881.3"/><line x1="1224.9" y1="881.3" x2="1222.5" y2="885.7"/><line x1="1222.5" y1="885.7" x2="1220.6" y2="890.2"/><line x1="1220.6" y1="890.2" x2="1219.1" y2="894.9"/><line x1="1219.1" y1="894.9" x2="1218.2" y2="899.7"/><line x1="1218.2" y1="899.7" x2="1217.6" y2="904.5"/><line x1="1217.6" y1="904.5" x2="1217.6" y2="909.4"/><line x1="1217.6" y1="909.4" x2="1218.0" y2="914.3"/><line x1="1218.0" y1="914.3" x2="1218.9" y2="919.2"/><line x1="1218.9" y1="919.2" x2="1220.3" y2="923.9"/><line x1="1220.3" y1="923.9" x2="1222.1" y2="928.4"/><line x1="1222.1" y1="928.4" x2="1224.3" y2="932.8"/><line x1="1224.3" y1="932.8" x2="1227.0" y2="936.9"/><line x1="1227.0" y1="936.9" x2="1230.1" y2="940.8"/><line x1="1230.1" y1="940.8" x2="1233.5" y2="944.3"/><line x1="1233.5" y1="944.3" x2="1237.2" y2="947.5"/><line x1="1237.2" y1="947.5" x2="1241.2" y2="950.2"/><line x1="1241.2" y1="950.2" x2="1245.5" y2="952.6"/><line x1="1245.5" y1="952.6" x2="1250.0" y2="954.6"/><line x1="1250.0" y1="954.6" x2="1254.7" y2="956.1"/><line x1="1254.7" y1="956.1" x2="1259.5" y2="957.2"/><line x1="1259.5" y1="957.2" x2="1264.3" y2="957.8"/><line x1="1264.3" y1="957.8" x2="1269.3" y2="957.9"/><line x1="1269.3" y1="957.9" x2="1274.1" y2="957.5"/><line x1="1274.1" y1="957.5" x2="1279.0" y2="956.6"/><line x1="1279.0" y1="956.6" x2="1283.7" y2="955.3"/><line x1="1283.7" y1="955.3" x2="1288.3" y2="953.6"/><line x1="1288.3" y1="953.6" x2="1292.7" y2="951.4"/><line x1="1292.7" y1="951.4" x2="1296.8" y2="948.7"/><line x1="1296.8" y1="948.7" x2="1300.7" y2="945.7"/><line x1="1300.7" y1="945.7" x2="1304.2" y2="942.4"/><line x1="1304.2" y1="942.4" x2="1307.5" y2="938.7"/><line x1="1307.5" y1="938.7" x2="1310.3" y2="934.7"/><line x1="1310.3" y1="934.7" x2="1312.7" y2="930.4"/><line x1="1312.7" y1="930.4" x2="1314.8" y2="925.9"/><line x1="1314.8" y1="925.9" x2="1316.3" y2="921.3"/><line x1="1316.3" y1="921.3" x2="1317.4" y2="916.5"/><line x1="1317.4" y1="916.5" x2="1318.1" y2="911.6"/><line x1="1318.1" y1="911.6" x2="1318.2" y2="906.7"/><line x1="1312.8" y1="930.3" x2="1397.5" y2="993.8"/><line x1="1231.3" y1="333.0" x2="1251.0" y2="202.0"/><line x1="1181.6" y1="322.7" x2="1200.9" y2="194.4"/><line x1="1131.9" y1="312.5" x2="1150.8" y2="186.9"/><line x1="1081.9" y1="303.8" x2="1100.7" y2="179.3"/><line x1="1031.8" y1="296.3" x2="1050.6" y2="171.7"/><line x1="981.7" y1="288.7" x2="1000.5" y2="164.2"/><line x1="931.6" y1="281.2" x2="950.4" y2="156.6"/><line x1="881.5" y1="273.6" x2="900.3" y2="149.1"/><line x1="831.4" y1="266.0" x2="850.2" y2="141.5"/><line x1="781.3" y1="258.5" x2="800.1" y2="134.0"/><line x1="731.2" y1="250.9" x2="750.0" y2="126.4"/><line x1="681.1" y1="243.4" x2="699.9" y2="118.8"/><line x1="631.0" y1="235.8" x2="649.8" y2="111.3"/><line x1="580.9" y1="228.3" x2="599.7" y2="103.7"/><line x1="530.8" y1="220.7" x2="549.6" y2="96.2"/><line x1="480.7" y1="213.1" x2="499.5" y2="88.6"/><line x1="430.6" y1="205.6" x2="449.4" y2="81.1"/><line x1="360.8" y1="796.1" x2="1221.0" y2="925.9"/><line x1="368.3" y1="746.3" x2="1231.8" y2="876.6"/><line x1="369.8" y1="634.5" x2="1263.3" y2="769.3"/><line x1="397.4" y1="526.6" x2="1264.8" y2="657.4"/><line x1="364.4" y1="358.6" x2="1204.2" y2="485.3"/><line x1="246.2" y1="50.4" x2="1305.8" y2="210.2"/><line x1="1382.4" y1="418.4" x2="1467.0" y2="431.2"/><line x1="405.0" y1="201.7" x2="1103.2" y2="307.0"/><line x1="1117.6" y1="309.6" x2="1253.7" y2="337.6"/><line x1="1265.5" y1="339.7" x2="1285.8" y2="342.7"/><line x1="1525.2" y1="97.7" x2="1525.2" y2="97.7"/><line x1="1525.2" y1="97.7" x2="1525.2" y2="97.7"/><line x1="1525.2" y1="97.7" x2="1525.2" y2="97.6"/><line x1="1525.2" y1="97.6" x2="1525.2" y2="97.6"/><line x1="1525.2" y1="97.6" x2="1525.2" y2="97.6"/><line x1="1525.2" y1="97.6" x2="1525.2" y2="97.5"/><line x1="1525.2" y1="97.5" x2="1525.2" y2="97.5"/><line x1="1525.2" y1="97.5" x2="1525.2" y2="97.5"/><line x1="1338.8" y1="574.4" x2="1338.8" y2="574.3"/><line x1="1338.8" y1="574.3" x2="1338.8" y2="574.3"/><line x1="1338.8" y1="574.3" x2="1338.8" y2="574.3"/><line x1="1338.8" y1="574.3" x2="1338.8" y2="574.2"/><line x1="1338.8" y1="574.2" x2="1338.8" y2="574.2"/><line x1="1338.8" y1="574.2" x2="1338.8" y2="574.2"/><line x1="1338.8" y1="574.2" x2="1338.8" y2="574.1"/><line x1="1338.8" y1="574.1" x2="1338.7" y2="574.1"/><line x1="1277.5" y1="674.6" x2="1249.0" y2="863.9"/><line x1="355.6" y1="729.1" x2="378.1" y2="579.7"/><line x1="1264.8" y1="657.4" x2="1277.5" y2="674.6"/><line x1="1249.0" y1="863.9" x2="1231.8" y2="876.6"/><line x1="355.6" y1="729.1" x2="368.3" y2="746.3"/><line x1="343.6" y1="808.8" x2="360.8" y2="796.1"/><line x1="1299.3" y1="868.1" x2="1365.2" y2="431.1"/><line x1="1365.2" y1="431.1" x2="1382.4" y2="418.4"/><line x1="1382.4" y1="418.4" x2="1467.0" y2="431.2"/><line x1="1467.0" y1="431.2" x2="1479.7" y2="448.4"/><line x1="1245.4" y1="1041.7" x2="1251.6" y2="955.2"/><line x1="1332.0" y1="1054.7" x2="1286.8" y2="954.2"/><line x1="967.9" y1="352.9" x2="967.9" y2="352.7"/><line x1="967.9" y1="352.7" x2="967.9" y2="352.4"/><line x1="967.9" y1="352.4" x2="967.9" y2="352.1"/><line x1="967.9" y1="352.1" x2="967.9" y2="351.8"/><line x1="967.9" y1="351.8" x2="967.9" y2="351.6"/><line x1="967.9" y1="351.6" x2="967.8" y2="351.3"/><line x1="967.8" y1="351.3" x2="967.8" y2="351.0"/><line x1="967.8" y1="351.0" x2="967.8" y2="350.7"/><line x1="330.1" y1="488.4" x2="325.1" y2="456.7"/><line x1="325.1" y1="456.7" x2="317.0" y2="425.6"/><line x1="317.0" y1="425.6" x2="306.0" y2="395.5"/><line x1="306.0" y1="395.5" x2="292.0" y2="366.6"/><line x1="292.0" y1="366.6" x2="275.3" y2="339.2"/><line x1="275.3" y1="339.2" x2="255.9" y2="313.5"/><line x1="255.9" y1="313.5" x2="234.2" y2="289.9"/><line x1="234.2" y1="289.9" x2="210.2" y2="268.6"/><line x1="210.2" y1="268.6" x2="184.3" y2="249.7"/><line x1="184.3" y1="249.7" x2="156.6" y2="233.4"/><line x1="156.6" y1="233.4" x2="127.5" y2="219.9"/><line x1="127.5" y1="219.9" x2="97.2" y2="209.3"/><line x1="97.2" y1="209.3" x2="66.0" y2="201.8"/><line x1="66.0" y1="201.8" x2="34.2" y2="197.3"/><line x1="34.2" y1="197.3" x2="2.1" y2="196.0"/><line x1="2.1" y1="196.0" x2="-29.9" y2="197.8"/><line x1="-25.6" y1="849.4" x2="6.4" y2="850.8"/><line x1="6.4" y1="850.8" x2="38.5" y2="849.0"/><line x1="38.5" y1="849.0" x2="70.2" y2="844.2"/><line x1="70.2" y1="844.2" x2="101.3" y2="836.2"/><line x1="101.3" y1="836.2" x2="131.4" y2="825.2"/><line x1="131.4" y1="825.2" x2="160.4" y2="811.4"/><line x1="160.4" y1="811.4" x2="187.8" y2="794.7"/><line x1="187.8" y1="794.7" x2="213.5" y2="775.5"/><line x1="213.5" y1="775.5" x2="237.2" y2="753.8"/><line x1="237.2" y1="753.8" x2="258.6" y2="729.9"/><line x1="258.6" y1="729.9" x2="277.6" y2="704.0"/><line x1="277.6" y1="704.0" x2="294.0" y2="676.4"/><line x1="294.0" y1="676.4" x2="307.6" y2="647.3"/><line x1="307.6" y1="647.3" x2="318.3" y2="617.1"/><line x1="318.3" y1="617.1" x2="326.0" y2="585.9"/><line x1="326.0" y1="585.9" x2="330.5" y2="554.1"/><line x1="330.5" y1="554.1" x2="332.0" y2="522.0"/><line x1="326.7" y1="259.5" x2="317.4" y2="321.2"/><line x1="245.7" y1="1120.1" x2="146.1" y2="1105.1"/><line x1="253.2" y1="1070.3" x2="153.6" y2="1055.3"/><line x1="260.7" y1="1020.5" x2="161.2" y2="1005.5"/><line x1="268.2" y1="970.7" x2="168.7" y2="955.6"/><line x1="275.8" y1="920.9" x2="176.2" y2="905.8"/><line x1="283.3" y1="871.1" x2="183.7" y2="856.0"/><line x1="290.8" y1="821.2" x2="191.2" y2="806.2"/><line x1="298.3" y1="771.4" x2="198.7" y2="756.4"/><line x1="305.8" y1="721.6" x2="206.2" y2="706.6"/><line x1="313.3" y1="671.8" x2="213.7" y2="656.8"/><line x1="320.8" y1="622.0" x2="221.2" y2="607.0"/><line x1="332.0" y1="521.8" x2="178.6" y2="498.7"/><line x1="327.6" y1="470.2" x2="186.2" y2="448.9"/><line x1="317.3" y1="417.7" x2="193.7" y2="399.1"/><line x1="313.8" y1="366.2" x2="201.2" y2="349.3"/><line x1="318.2" y1="316.0" x2="208.7" y2="299.4"/><line x1="325.7" y1="266.2" x2="216.2" y2="249.6"/><line x1="328.3" y1="572.2" x2="171.1" y2="548.5"/><line x1="380.2" y1="483.0" x2="380.2" y2="482.9"/><line x1="380.2" y1="482.9" x2="380.1" y2="482.8"/><line x1="380.1" y1="482.8" x2="380.1" y2="482.8"/><line x1="380.1" y1="482.8" x2="380.1" y2="482.7"/><line x1="380.1" y1="482.7" x2="380.1" y2="482.6"/><line x1="380.1" y1="482.6" x2="380.1" y2="482.5"/><line x1="380.1" y1="482.5" x2="380.1" y2="482.4"/><line x1="380.1" y1="482.4" x2="380.1" y2="482.3"/><line x1="397.4" y1="526.6" x2="382.0" y2="539.5"/><line x1="417.5" y1="366.6" x2="434.0" y2="257.0"/><line x1="224.9" y1="1244.3" x2="69.8" y2="1220.9"/><line x1="140.9" y1="1231.6" x2="130.4" y2="1301.4"/><line x1="367.2" y1="328.7" x2="377.0" y2="263.7"/><line x1="377.0" y1="263.7" x2="394.2" y2="251.0"/><line x1="394.2" y1="251.0" x2="1095.7" y2="356.8"/><line x1="1095.7" y1="356.8" x2="1107.5" y2="358.9"/><line x1="1107.5" y1="358.9" x2="1243.6" y2="386.9"/><line x1="1243.6" y1="386.9" x2="1258.0" y2="389.5"/><line x1="1258.0" y1="389.5" x2="1304.2" y2="396.4"/><line x1="1304.2" y1="396.4" x2="1316.9" y2="413.6"/><line x1="1316.9" y1="413.6" x2="1289.5" y2="594.9"/><line x1="1289.5" y1="594.9" x2="1272.4" y2="607.6"/><line x1="1272.4" y1="607.6" x2="394.5" y2="475.2"/><line x1="394.5" y1="475.2" x2="376.5" y2="457.2"/><line x1="376.5" y1="457.2" x2="371.8" y2="434.9"/><line x1="371.8" y1="434.9" x2="367.2" y2="328.7"/></g>
</svg>