<svg xmlns="http://www.w3.org/2000/svg" viewBox="0 0 1600 25352" preserveAspectRatio="xMidYMid meet">
<rect width="100%" height="100%" fill="#100f0d"/>
<g data-layer="PROP. UTILITY EASEMENT" stroke="#785420" stroke-width="0.7" fill="none"><line x1="1579.6" y1="1.0" x2="1581.2" y2="1.2"/><line x1="1579.6" y1="0.4" x2="1579.4" y2="1.5"/><line x1="1579.3" y1="1.4" x2="1579.4" y2="1.5"/><line x1="1581.3" y1="0.3" x2="1581.2" y2="1.2"/><line x1="1598.1" y1="3.0" x2="1598.0" y2="4.0"/><line x1="1598.2" y1="3.4" x2="1598.2" y2="3.4"/><line x1="1598.2" y1="3.4" x2="1599.5" y2="3.6"/><line x1="1598.2" y1="3.5" x2="1598.2" y2="3.4"/><line x1="1598.2" y1="3.3" x2="1599.5" y2="3.5"/><line x1="1598.2" y1="3.3" x2="1598.2" y2="3.3"/><line x1="1598.2" y1="3.3" x2="1598.2" y2="3.1"/><line x1="1599.5" y1="3.5" x2="1599.5" y2="3.5"/><line x1="1599.6" y1="3.2" x2="1599.5" y2="3.5"/><line x1="1599.6" y1="3.2" x2="1599.6" y2="3.2"/><line x1="1598.3" y1="3.0" x2="1599.6" y2="3.2"/><line x1="1598.2" y1="2.9" x2="1598.2" y2="2.9"/><line x1="1598.2" y1="2.9" x2="1598.2" y2="2.9"/><line x1="1598.2" y1="2.9" x2="1598.2" y2="2.9"/><line x1="1598.2" y1="2.9" x2="1598.2" y2="2.9"/><line x1="1598.2" y1="2.9" x2="1598.2" y2="2.9"/><line x1="1598.2" y1="2.9" x2="1598.2" y2="2.9"/><line x1="1598.2" y1="2.9" x2="1598.2" y2="2.9"/><line x1="1598.2" y1="2.9" x2="1598.2" y2="2.9"/><line x1="1598.3" y1="3.0" x2="1598.2" y2="3.0"/><line x1="1599.7" y1="3.5" x2="1599.7" y2="3.5"/><line x1="1599.7" y1="3.5" x2="1599.7" y2="3.5"/><line x1="1599.7" y1="3.5" x2="1599.7" y2="3.5"/><line x1="1599.7" y1="3.5" x2="1599.6" y2="3.5"/><line x1="1599.6" y1="3.5" x2="1599.6" y2="3.5"/><line x1="1599.6" y1="3.5" x2="1599.6" y2="3.5"/><line x1="1599.6" y1="3.5" x2="1599.6" y2="3.5"/><line x1="1599.6" y1="3.5" x2="1599.6" y2="3.5"/><line x1="1599.6" y1="3.5" x2="1599.6" y2="3.5"/><line x1="1599.6" y1="3.5" x2="1599.6" y2="3.5"/><line x1="1599.6" y1="3.5" x2="1599.6" y2="3.5"/><line x1="1599.6" y1="3.5" x2="1599.6" y2="3.5"/><line x1="1599.6" y1="3.5" x2="1599.6" y2="3.5"/><line x1="1599.6" y1="3.5" x2="1599.5" y2="3.5"/><line x1="1599.5" y1="3.5" x2="1599.5" y2="3.5"/><line x1="1599.5" y1="3.5" x2="1599.5" y2="3.5"/><line x1="1599.5" y1="3.5" x2="1599.5" y2="3.5"/><line x1="1599.5" y1="3.5" x2="1599.5" y2="3.5"/><line x1="1599.5" y1="3.5" x2="1599.5" y2="3.5"/><line x1="1599.5" y1="3.5" x2="1599.5" y2="3.5"/><line x1="1599.5" y1="3.5" x2="1599.5" y2="3.5"/><line x1="1599.5" y1="3.5" x2="1599.5" y2="3.5"/><line x1="1599.5" y1="3.5" x2="1599.5" y2="3.5"/><line x1="1599.5" y1="3.5" x2="1599.5" y2="3.6"/><line x1="1599.5" y1="3.6" x2="1599.5" y2="3.6"/><line x1="1599.5" y1="3.6" x2="1599.5" y2="3.6"/><line x1="1599.5" y1="3.6" x2="1599.5" y2="3.6"/><line x1="1599.5" y1="3.6" x2="1599.5" y2="3.6"/><line x1="1599.5" y1="3.6" x2="1599.5" y2="3.6"/><line x1="1599.5" y1="3.6" x2="1599.5" y2="3.6"/><line x1="1599.5" y1="3.6" x2="1599.5" y2="3.6"/><line x1="1599.5" y1="3.6" x2="1599.5" y2="3.6"/><line x1="1599.5" y1="3.6" x2="1599.5" y2="3.6"/><line x1="1599.5" y1="3.6" x2="1599.6" y2="3.6"/><line x1="1599.6" y1="3.6" x2="1599.6" y2="3.6"/><line x1="1599.6" y1="3.6" x2="1599.6" y2="3.6"/><line x1="1599.6" y1="3.6" x2="1599.6" y2="3.6"/><line x1="1599.6" y1="3.6" x2="1599.6" y2="3.6"/><line x1="1599.6" y1="3.6" x2="1599.6" y2="3.6"/><line x1="1599.6" y1="3.6" x2="1599.6" y2="3.6"/><line x1="1599.6" y1="3.6" x2="1599.6" y2="3.6"/><line x1="1599.6" y1="3.6" x2="1599.6" y2="3.6"/><line x1="1599.6" y1="3.6" x2="1599.6" y2="3.6"/><line x1="1599.6" y1="3.6" x2="1599.7" y2="3.6"/><line x1="1599.7" y1="3.6" x2="1599.7" y2="3.6"/><line x1="1599.7" y1="3.6" x2="1599.7" y2="3.6"/><line x1="1599.7" y1="3.6" x2="1599.7" y2="3.6"/><line x1="1599.7" y1="3.6" x2="1599.7" y2="3.5"/><line x1="1599.6" y1="3.5" x2="1599.7" y2="2.8"/><line x1="1599.9" y1="2.8" x2="1599.9" y2="2.9"/><line x1="1599.7" y1="2.8" x2="1599.9" y2="2.8"/><line x1="1599.7" y1="2.8" x2="1599.7" y2="2.8"/><line x1="1598.2" y1="2.7" x2="1598.2" y2="2.6"/><line x1="1598.2" y1="2.6" x2="1598.3" y2="2.6"/><line x1="1598.3" y1="2.6" x2="1599.3" y2="2.7"/><line x1="1599.3" y1="2.7" x2="1599.3" y2="2.7"/><line x1="1599.3" y1="2.7" x2="1599.5" y2="2.8"/><line x1="1599.5" y1="2.8" x2="1599.6" y2="2.8"/><line x1="1599.6" y1="2.8" x2="1599.6" y2="2.8"/><line x1="1599.6" y1="2.8" x2="1599.6" y2="2.8"/><line x1="1599.6" y1="2.8" x2="1599.6" y2="3.1"/><line x1="1599.6" y1="3.1" x2="1599.6" y2="3.1"/><line x1="1599.6" y1="3.1" x2="1598.3" y2="2.9"/><line x1="1598.3" y1="2.9" x2="1598.2" y2="2.9"/><line x1="1598.2" y1="2.9" x2="1598.2" y2="2.8"/><line x1="1598.2" y1="2.8" x2="1598.2" y2="2.7"/><line x1="1598.1" y1="2.9" x2="1598.1" y2="2.9"/><line x1="1598.1" y1="2.9" x2="1598.1" y2="2.8"/><line x1="1598.1" y1="2.8" x2="1598.1" y2="2.7"/><line x1="1598.1" y1="2.7" x2="1598.0" y2="2.7"/><line x1="1598.0" y1="2.7" x2="1598.0" y2="2.6"/><line x1="1598.0" y1="2.6" x2="1598.0" y2="2.6"/><line x1="1598.0" y1="2.6" x2="1597.9" y2="2.6"/><line x1="1597.9" y1="2.6" x2="1597.9" y2="2.5"/><line x1="1597.9" y1="2.5" x2="1597.8" y2="2.5"/><line x1="1597.8" y1="2.5" x2="1597.7" y2="2.5"/><line x1="1597.7" y1="2.5" x2="1597.7" y2="2.5"/><line x1="1597.7" y1="2.5" x2="1597.6" y2="2.5"/><line x1="1597.6" y1="2.5" x2="1597.6" y2="2.5"/><line x1="1597.6" y1="2.5" x2="1597.5" y2="2.5"/><line x1="1597.5" y1="2.5" x2="1597.4" y2="2.5"/><line x1="1597.4" y1="2.5" x2="1597.4" y2="2.6"/><line x1="1597.4" y1="2.6" x2="1597.3" y2="2.6"/><line x1="1597.3" y1="2.6" x2="1597.3" y2="2.7"/><line x1="1597.3" y1="2.7" x2="1597.3" y2="2.7"/><line x1="1597.3" y1="2.7" x2="1597.2" y2="2.8"/><line x1="1597.2" y1="2.8" x2="1597.2" y2="2.8"/><line x1="1597.2" y1="2.8" x2="1597.2" y2="2.9"/><line x1="1597.2" y1="2.9" x2="1597.2" y2="2.9"/><line x1="1597.2" y1="2.9" x2="1597.2" y2="3.0"/><line x1="1597.2" y1="3.0" x2="1597.2" y2="3.1"/><line x1="1597.2" y1="3.1" x2="1597.2" y2="3.1"/><line x1="1597.2" y1="3.1" x2="1597.2" y2="3.2"/><line x1="1597.2" y1="3.2" x2="1597.3" y2="3.2"/><line x1="1597.3" y1="3.2" x2="1597.3" y2="3.3"/><line x1="1597.3" y1="3.3" x2="1597.3" y2="3.3"/><line x1="1597.3" y1="3.3" x2="1597.4" y2="3.4"/><line x1="1597.4" y1="3.4" x2="1597.4" y2="3.4"/><line x1="1597.4" y1="3.4" x2="1597.5" y2="3.4"/><line x1="1597.5" y1="3.4" x2="1597.5" y2="3.4"/><line x1="1597.5" y1="3.4" x2="1597.6" y2="3.4"/><line x1="1597.6" y1="3.4" x2="1597.7" y2="3.4"/><line x1="1597.7" y1="3.4" x2="1597.7" y2="3.4"/><line x1="1597.7" y1="3.4" x2="1597.8" y2="3.4"/><line x1="1597.8" y1="3.4" x2="1597.9" y2="3.4"/><line x1="1597.9" y1="3.4" x2="1597.9" y2="3.4"/><line x1="1597.9" y1="3.4" x2="1598.0" y2="3.3"/><line x1="1598.0" y1="3.3" x2="1598.0" y2="3.3"/><line x1="1598.0" y1="3.3" x2="1598.0" y2="3.3"/><line x1="1598.0" y1="3.3" x2="1598.1" y2="3.2"/><line x1="1598.1" y1="3.2" x2="1598.1" y2="3.1"/><line x1="1598.1" y1="3.1" x2="1598.1" y2="3.1"/><line x1="1598.1" y1="3.1" x2="1598.1" y2="3.0"/><line x1="1598.1" y1="3.0" x2="1598.1" y2="3.0"/><line x1="1599.1" y1="2.7" x2="1599.1" y2="2.7"/><line x1="1599.1" y1="2.7" x2="1599.1" y2="2.7"/><line x1="1599.1" y1="2.7" x2="1599.1" y2="2.7"/><line x1="1599.1" y1="2.7" x2="1599.1" y2="2.7"/><line x1="1599.1" y1="2.7" x2="1599.1" y2="2.7"/><line x1="1599.1" y1="2.7" x2="1599.1" y2="2.7"/><line x1="1599.1" y1="2.7" x2="1599.1" y2="2.7"/><line x1="1599.1" y1="2.7" x2="1599.1" y2="2.7"/><line x1="1598.1" y1="2.6" x2="1598.1" y2="2.7"/><line x1="1598.3" y1="2.5" x2="1598.3" y2="2.5"/><line x1="1598.3" y1="2.5" x2="1598.3" y2="2.5"/><line x1="1598.3" y1="2.5" x2="1598.3" y2="2.5"/><line x1="1598.3" y1="2.5" x2="1598.3" y2="2.5"/><line x1="1598.3" y1="2.5" x2="1598.3" y2="2.5"/><line x1="1598.3" y1="2.5" x2="1598.3" y2="2.5"/><line x1="1598.3" y1="2.5" x2="1598.3" y2="2.5"/><line x1="1598.3" y1="2.5" x2="1598.3" y2="2.5"/><line x1="1598.3" y1="2.5" x2="1599.3" y2="2.6"/><line x1="1599.7" y1="3.0" x2="1599.7" y2="3.0"/><line x1="1599.7" y1="3.0" x2="1599.7" y2="3.0"/><line x1="1599.7" y1="3.0" x2="1599.7" y2="3.0"/><line x1="1599.7" y1="3.0" x2="1599.7" y2="3.0"/><line x1="1599.7" y1="3.0" x2="1599.7" y2="3.0"/><line x1="1599.7" y1="3.0" x2="1599.7" y2="3.0"/><line x1="1599.7" y1="3.0" x2="1599.7" y2="3.0"/><line x1="1599.7" y1="3.0" x2="1599.7" y2="3.0"/><line x1="1599.3" y1="2.6" x2="1599.6" y2="2.7"/><line x1="1599.6" y1="2.7" x2="1599.6" y2="2.7"/><line x1="1599.9" y1="2.3" x2="1599.9" y2="2.3"/><line x1="1599.9" y1="2.3" x2="1599.9" y2="2.3"/><line x1="1599.9" y1="2.3" x2="1599.9" y2="2.3"/><line x1="1599.9" y1="2.3" x2="1599.9" y2="2.3"/><line x1="1599.9" y1="2.3" x2="1599.9" y2="2.3"/><line x1="1599.9" y1="2.3" x2="1599.9" y2="2.3"/><line x1="1599.9" y1="2.3" x2="1599.9" y2="2.3"/><line x1="1599.9" y1="2.3" x2="1599.9" y2="2.3"/><line x1="1598.0" y1="2.3" x2="1599.6" y2="2.5"/><line x1="1597.9" y1="3.0" x2="1598.0" y2="2.7"/><line x1="1597.9" y1="4.0" x2="1598.0" y2="3.0"/><line x1="1598.0" y1="3.0" x2="1597.9" y2="3.0"/><line x1="1598.1" y1="2.7" x2="1598.0" y2="2.7"/><line x1="1598.1" y1="2.7" x2="1598.0" y2="2.7"/><line x1="1599.1" y1="2.7" x2="1599.1" y2="2.7"/><line x1="1599.1" y1="2.7" x2="1599.1" y2="2.7"/><line x1="1599.1" y1="2.7" x2="1599.1" y2="2.7"/><line x1="1599.1" y1="2.7" x2="1599.1" y2="2.7"/><line x1="1599.1" y1="2.7" x2="1599.1" y2="2.7"/><line x1="1599.1" y1="2.7" x2="1599.1" y2="2.7"/><line x1="1599.1" y1="2.7" x2="1599.1" y2="2.7"/><line x1="1599.1" y1="2.7" x2="1599.1" y2="2.7"/><line x1="1598.0" y1="2.7" x2="1598.0" y2="2.3"/><line x1="1579.6" y1="1.0" x2="1579.6" y2="0.9"/><line x1="1579.3" y1="1.4" x2="1579.5" y2="0.5"/><line x1="1579.7" y1="-0.0" x2="1579.7" y2="-0.0"/><line x1="1579.7" y1="-0.0" x2="1579.7" y2="-0.0"/><line x1="1579.7" y1="-0.0" x2="1579.7" y2="-0.0"/><line x1="1579.7" y1="-0.0" x2="1579.7" y2="-0.0"/><line x1="1579.7" y1="-0.0" x2="1579.7" y2="-0.0"/><line x1="1579.7" y1="-0.0" x2="1579.7" y2="-0.0"/><line x1="1579.7" y1="-0.0" x2="1579.7" y2="-0.1"/><line x1="1579.7" y1="-0.1" x2="1579.7" y2="-0.1"/><line x1="1579.7" y1="0.1" x2="1579.7" y2="0.0"/><line x1="1579.7" y1="0.0" x2="1579.7" y2="0.0"/><line x1="1579.7" y1="0.0" x2="1580.8" y2="0.2"/><line x1="1580.8" y1="0.2" x2="1580.8" y2="0.2"/><line x1="1580.8" y1="0.2" x2="1581.0" y2="0.2"/><line x1="1581.0" y1="0.2" x2="1581.0" y2="0.2"/><line x1="1581.0" y1="0.2" x2="1581.1" y2="0.2"/><line x1="1581.1" y1="0.2" x2="1581.1" y2="0.3"/><line x1="1581.1" y1="0.3" x2="1581.0" y2="0.5"/><line x1="1581.0" y1="0.5" x2="1581.0" y2="0.5"/><line x1="1581.0" y1="0.5" x2="1579.7" y2="0.3"/><line x1="1579.7" y1="0.3" x2="1579.7" y2="0.3"/><line x1="1579.7" y1="0.3" x2="1579.7" y2="0.3"/><line x1="1579.7" y1="0.3" x2="1579.7" y2="0.1"/><line x1="1581.0" y1="0.1" x2="1581.1" y2="0.1"/><line x1="1581.4" y1="-0.2" x2="1581.4" y2="-0.2"/><line x1="1581.4" y1="-0.2" x2="1581.4" y2="-0.2"/><line x1="1581.4" y1="-0.2" x2="1581.4" y2="-0.2"/><line x1="1581.4" y1="-0.2" x2="1581.4" y2="-0.2"/><line x1="1581.4" y1="-0.2" x2="1581.4" y2="-0.2"/><line x1="1581.4" y1="-0.2" x2="1581.4" y2="-0.2"/><line x1="1581.4" y1="-0.2" x2="1581.4" y2="-0.2"/><line x1="1581.4" y1="-0.2" x2="1581.4" y2="-0.2"/><line x1="1579.6" y1="0.5" x2="1579.4" y2="1.5"/><line x1="1580.8" y1="0.1" x2="1581.0" y2="0.1"/><line x1="1581.2" y1="0.5" x2="1581.2" y2="0.5"/><line x1="1581.2" y1="0.5" x2="1581.2" y2="0.5"/><line x1="1581.2" y1="0.5" x2="1581.2" y2="0.5"/><line x1="1581.2" y1="0.5" x2="1581.2" y2="0.5"/><line x1="1581.2" y1="0.5" x2="1581.2" y2="0.5"/><line x1="1581.2" y1="0.5" x2="1581.2" y2="0.5"/><line x1="1581.2" y1="0.5" x2="1581.2" y2="0.5"/><line x1="1581.2" y1="0.5" x2="1581.2" y2="0.5"/><line x1="1581.1" y1="1.0" x2="1581.1" y2="1.0"/><line x1="1581.1" y1="1.0" x2="1581.1" y2="1.0"/><line x1="1581.1" y1="1.0" x2="1581.1" y2="1.0"/><line x1="1581.1" y1="1.0" x2="1581.1" y2="0.9"/><line x1="1581.1" y1="0.9" x2="1581.1" y2="0.9"/><line x1="1581.1" y1="0.9" x2="1581.1" y2="0.9"/><line x1="1581.1" y1="0.9" x2="1581.1" y2="0.9"/><line x1="1581.1" y1="0.9" x2="1581.1" y2="0.9"/><line x1="1581.1" y1="0.9" x2="1581.1" y2="0.9"/><line x1="1581.1" y1="0.9" x2="1581.0" y2="0.9"/><line x1="1581.0" y1="0.9" x2="1581.0" y2="0.9"/><line x1="1581.0" y1="0.9" x2="1581.0" y2="0.9"/><line x1="1581.0" y1="0.9" x2="1581.0" y2="0.9"/><line x1="1581.0" y1="0.9" x2="1581.0" y2="0.9"/><line x1="1581.0" y1="0.9" x2="1581.0" y2="0.9"/><line x1="1581.0" y1="0.9" x2="1581.0" y2="0.9"/><line x1="1581.0" y1="0.9" x2="1581.0" y2="0.9"/><line x1="1581.0" y1="0.9" x2="1581.0" y2="0.9"/><line x1="1581.0" y1="0.9" x2="1581.0" y2="0.9"/><line x1="1581.0" y1="0.9" x2="1580.9" y2="1.0"/><line x1="1580.9" y1="1.0" x2="1580.9" y2="1.0"/><line x1="1580.9" y1="1.0" x2="1580.9" y2="1.0"/><line x1="1580.9" y1="1.0" x2="1580.9" y2="1.0"/><line x1="1580.9" y1="1.0" x2="1580.9" y2="1.0"/><line x1="1580.9" y1="1.0" x2="1580.9" y2="1.0"/><line x1="1580.9" y1="1.0" x2="1580.9" y2="1.0"/><line x1="1580.9" y1="1.0" x2="1580.9" y2="1.0"/><line x1="1580.9" y1="1.0" x2="1581.0" y2="1.0"/><line x1="1581.0" y1="1.0" x2="1581.0" y2="1.1"/><line x1="1581.0" y1="1.1" x2="1581.0" y2="1.1"/><line x1="1581.0" y1="1.1" x2="1581.0" y2="1.1"/><line x1="1581.0" y1="1.1" x2="1581.0" y2="1.1"/><line x1="1581.0" y1="1.1" x2="1581.0" y2="1.1"/><line x1="1581.0" y1="1.1" x2="1581.0" y2="1.1"/><line x1="1581.0" y1="1.1" x2="1581.0" y2="1.1"/><line x1="1581.0" y1="1.1" x2="1581.0" y2="1.1"/><line x1="1581.0" y1="1.1" x2="1581.0" y2="1.1"/><line x1="1581.0" y1="1.1" x2="1581.1" y2="1.1"/><line x1="1581.1" y1="1.1" x2="1581.1" y2="1.1"/><line x1="1581.1" y1="1.1" x2="1581.1" y2="1.1"/><line x1="1581.1" y1="1.1" x2="1581.1" y2="1.1"/><line x1="1581.1" y1="1.1" x2="1581.1" y2="1.1"/><line x1="1581.1" y1="1.1" x2="1581.1" y2="1.1"/><line x1="1581.1" y1="1.1" x2="1581.1" y2="1.0"/><line x1="1581.1" y1="1.0" x2="1581.1" y2="1.0"/><line x1="1581.1" y1="1.0" x2="1581.1" y2="1.0"/><line x1="1581.1" y1="1.0" x2="1581.1" y2="1.0"/><line x1="1581.1" y1="1.0" x2="1581.1" y2="1.0"/><line x1="1581.1" y1="0.9" x2="1581.2" y2="0.3"/><line x1="1581.2" y1="0.3" x2="1581.2" y2="0.3"/><line x1="1581.3" y1="0.3" x2="1581.3" y2="0.3"/><line x1="1581.0" y1="0.6" x2="1581.0" y2="0.9"/><line x1="1579.7" y1="0.7" x2="1579.7" y2="0.5"/><line x1="1579.7" y1="0.8" x2="1580.9" y2="1.0"/><line x1="1579.6" y1="0.9" x2="1579.7" y2="0.8"/><line x1="1579.7" y1="0.7" x2="1581.0" y2="0.9"/><line x1="1579.7" y1="0.7" x2="1579.7" y2="0.7"/><line x1="1581.0" y1="0.9" x2="1581.0" y2="0.9"/><line x1="1579.7" y1="0.4" x2="1581.0" y2="0.6"/><line x1="1579.7" y1="-0.1" x2="1580.8" y2="0.1"/><line x1="1581.2" y1="0.3" x2="1581.3" y2="0.3"/><line x1="1580.6" y1="0.2" x2="1580.6" y2="0.2"/><line x1="1580.6" y1="0.2" x2="1580.6" y2="0.2"/><line x1="1580.6" y1="0.2" x2="1580.6" y2="0.2"/><line x1="1580.6" y1="0.2" x2="1580.6" y2="0.2"/><line x1="1580.6" y1="0.2" x2="1580.6" y2="0.2"/><line x1="1580.6" y1="0.2" x2="1580.6" y2="0.2"/><line x1="1580.6" y1="0.2" x2="1580.6" y2="0.2"/><line x1="1580.6" y1="0.2" x2="1580.6" y2="0.2"/><line x1="1579.6" y1="0.4" x2="1579.6" y2="0.3"/><line x1="1579.6" y1="0.3" x2="1579.6" y2="0.2"/><line x1="1579.6" y1="0.2" x2="1579.5" y2="0.2"/><line x1="1579.5" y1="0.2" x2="1579.5" y2="0.1"/><line x1="1579.5" y1="0.1" x2="1579.5" y2="0.1"/><line x1="1579.5" y1="0.1" x2="1579.4" y2="0.0"/><line x1="1579.4" y1="0.0" x2="1579.4" y2="0.0"/><line x1="1579.4" y1="0.0" x2="1579.3" y2="-0.0"/><line x1="1579.3" y1="-0.0" x2="1579.3" y2="-0.0"/><line x1="1579.3" y1="-0.0" x2="1579.2" y2="-0.1"/><line x1="1579.2" y1="-0.1" x2="1579.1" y2="-0.1"/><line x1="1579.1" y1="-0.1" x2="1579.1" y2="-0.1"/><line x1="1579.1" y1="-0.1" x2="1579.0" y2="-0.1"/><line x1="1579.0" y1="-0.1" x2="1579.0" y2="-0.0"/><line x1="1579.0" y1="-0.0" x2="1578.9" y2="-0.0"/><line x1="1578.9" y1="-0.0" x2="1578.8" y2="0.0"/><line x1="1578.8" y1="0.0" x2="1578.8" y2="0.1"/><line x1="1578.8" y1="0.1" x2="1578.8" y2="0.1"/><line x1="1578.8" y1="0.1" x2="1578.7" y2="0.1"/><line x1="1578.7" y1="0.1" x2="1578.7" y2="0.2"/><line x1="1578.7" y1="0.2" x2="1578.7" y2="0.3"/><line x1="1578.7" y1="0.3" x2="1578.6" y2="0.3"/><line x1="1578.6" y1="0.3" x2="1578.6" y2="0.4"/><line x1="1578.6" y1="0.4" x2="1578.6" y2="0.4"/><line x1="1578.6" y1="0.4" x2="1578.6" y2="0.5"/><line x1="1578.6" y1="0.5" x2="1578.7" y2="0.6"/><line x1="1578.7" y1="0.6" x2="1578.7" y2="0.6"/><line x1="1578.7" y1="0.6" x2="1578.7" y2="0.7"/><line x1="1578.7" y1="0.7" x2="1578.7" y2="0.7"/><line x1="1578.7" y1="0.7" x2="1578.8" y2="0.8"/><line x1="1578.8" y1="0.8" x2="1578.8" y2="0.8"/><line x1="1578.8" y1="0.8" x2="1578.9" y2="0.8"/><line x1="1578.9" y1="0.8" x2="1578.9" y2="0.9"/><line x1="1578.9" y1="0.9" x2="1579.0" y2="0.9"/><line x1="1579.0" y1="0.9" x2="1579.1" y2="0.9"/><line x1="1579.1" y1="0.9" x2="1579.1" y2="0.9"/><line x1="1579.1" y1="0.9" x2="1579.2" y2="0.9"/><line x1="1579.2" y1="0.9" x2="1579.2" y2="0.9"/><line x1="1579.2" y1="0.9" x2="1579.3" y2="0.9"/><line x1="1579.3" y1="0.9" x2="1579.4" y2="0.8"/><line x1="1579.4" y1="0.8" x2="1579.4" y2="0.8"/><line x1="1579.4" y1="0.8" x2="1579.5" y2="0.7"/><line x1="1579.5" y1="0.7" x2="1579.5" y2="0.7"/><line x1="1579.5" y1="0.7" x2="1579.5" y2="0.7"/><line x1="1579.5" y1="0.7" x2="1579.6" y2="0.6"/><line x1="1579.6" y1="0.6" x2="1579.6" y2="0.5"/><line x1="1579.6" y1="0.5" x2="1579.6" y2="0.5"/><line x1="1579.6" y1="0.5" x2="1579.6" y2="0.4"/><line x1="1579.7" y1="0.4" x2="1579.7" y2="0.4"/><line x1="1579.7" y1="0.4" x2="1579.7" y2="0.4"/><line x1="1579.7" y1="0.4" x2="1579.7" y2="0.4"/><line x1="1579.7" y1="0.4" x2="1579.7" y2="0.4"/><line x1="1579.7" y1="0.4" x2="1579.7" y2="0.4"/><line x1="1579.7" y1="0.4" x2="1579.7" y2="0.4"/><line x1="1579.7" y1="0.4" x2="1579.7" y2="0.4"/><line x1="1579.7" y1="0.4" x2="1579.7" y2="0.4"/><line x1="1579.6" y1="0.0" x2="1579.6" y2="0.1"/><line x1="1579.5" y1="0.5" x2="1579.4" y2="0.4"/><line x1="1579.7" y1="0.4" x2="1579.7" y2="0.4"/><line x1="1579.4" y1="0.5" x2="1579.4" y2="0.2"/><line x1="1579.4" y1="0.2" x2="1579.5" y2="-0.3"/><line x1="1598.0" y1="4.0" x2="1597.9" y2="4.0"/><line x1="1581.0" y1="0.2" x2="1580.9" y2="0.5"/><line x1="1580.6" y1="0.2" x2="1580.6" y2="0.2"/><line x1="1580.6" y1="0.2" x2="1580.6" y2="0.2"/><line x1="1580.6" y1="0.2" x2="1580.6" y2="0.2"/><line x1="1580.6" y1="0.2" x2="1580.6" y2="0.2"/><line x1="1580.6" y1="0.2" x2="1580.6" y2="0.2"/><line x1="1580.6" y1="0.2" x2="1580.6" y2="0.2"/><line x1="1580.6" y1="0.2" x2="1580.6" y2="0.2"/><line x1="1580.6" y1="0.2" x2="1580.6" y2="0.2"/><line x1="1579.6" y1="-0.3" x2="1579.6" y2="-0.1"/><line x1="1579.6" y1="-0.3" x2="1579.6" y2="-0.1"/><line x1="1580.4" y1="0.3" x2="1580.3" y2="0.3"/><line x1="1580.4" y1="0.1" x2="1580.4" y2="0.3"/><line x1="1580.3" y1="0.3" x2="1580.3" y2="0.4"/><line x1="1580.4" y1="0.1" x2="1580.4" y2="0.3"/><line x1="1580.3" y1="0.3" x2="1580.3" y2="0.4"/><line x1="1581.1" y1="1.0" x2="1581.2" y2="1.1"/><line x1="1579.4" y1="0.5" x2="1579.4" y2="0.4"/><line x1="1579.4" y1="0.4" x2="1579.4" y2="0.4"/><line x1="1579.5" y1="0.5" x2="1579.6" y2="0.6"/><line x1="1579.5" y1="0.6" x2="1579.6" y2="0.6"/><line x1="1579.5" y1="-0.3" x2="1581.1" y2="-0.1"/><line x1="1581.1" y1="-0.1" x2="1581.0" y2="0.1"/><line x1="0.3" y1="25351.9" x2="0.3" y2="25351.9"/><line x1="0.3" y1="25351.9" x2="0.3" y2="25351.9"/><line x1="0.3" y1="25351.9" x2="0.3" y2="25351.9"/><line x1="0.3" y1="25351.9" x2="0.3" y2="25351.9"/><line x1="0.3" y1="25351.9" x2="0.3" y2="25351.9"/><line x1="0.3" y1="25351.9" x2="0.3" y2="25351.9"/></g>
<g data-layer="BORDER OUTLINE (POLYLINE)" stroke="#52503f" stroke-width="0.7" fill="none"><line x1="1581.1" y1="0.1" x2="1581.4" y2="0.2"/><line x1="1581.4" y1="0.2" x2="1581.3" y2="1.2"/><line x1="1581.3" y1="1.2" x2="1579.6" y2="1.0"/><line x1="1579.6" y1="1.0" x2="1579.5" y2="1.7"/><line x1="1579.5" y1="1.7" x2="1579.2" y2="1.7"/><line x1="1579.2" y1="1.7" x2="1579.5" y2="-0.3"/><line x1="1579.5" y1="-0.3" x2="1581.1" y2="-0.1"/><line x1="1581.1" y1="-0.1" x2="1581.1" y2="0.1"/></g>
<g data-layer="C-PROP-LINE - SUB LOTS" stroke="#d9a437" stroke-width="0.7" fill="none"><line x1="1600.0" y1="2.8" x2="1599.8" y2="3.8"/><line x1="1600.0" y1="2.7" x2="1599.8" y2="3.8"/><line x1="1599.9" y1="2.9" x2="1599.8" y2="3.8"/><line x1="1599.8" y1="3.8" x2="1598.1" y2="3.5"/><line x1="1598.4" y1="2.7" x2="1598.4" y2="2.6"/><line x1="1598.4" y1="2.8" x2="1598.5" y2="2.6"/><line x1="1598.5" y1="2.8" x2="1598.5" y2="2.6"/><line x1="1598.6" y1="2.8" x2="1598.6" y2="2.6"/><line x1="1598.7" y1="2.8" x2="1598.7" y2="2.6"/><line x1="1598.8" y1="2.8" x2="1598.8" y2="2.6"/><line x1="1598.8" y1="2.8" x2="1598.9" y2="2.6"/><line x1="1598.9" y1="2.8" x2="1598.9" y2="2.7"/><line x1="1599.0" y1="2.8" x2="1599.0" y2="2.7"/><line x1="1599.1" y1="2.8" x2="1599.1" y2="2.7"/><line x1="1599.1" y1="2.9" x2="1599.2" y2="2.7"/><line x1="1599.2" y1="2.9" x2="1599.3" y2="2.7"/><line x1="1599.3" y1="2.9" x2="1599.3" y2="2.7"/><line x1="1598.1" y1="3.5" x2="1598.2" y2="3.4"/><line x1="1598.2" y1="3.6" x2="1598.3" y2="3.4"/><line x1="1598.3" y1="3.6" x2="1598.3" y2="3.4"/><line x1="1598.4" y1="3.6" x2="1598.4" y2="3.4"/><line x1="1598.5" y1="3.6" x2="1598.5" y2="3.4"/><line x1="1598.5" y1="3.6" x2="1598.6" y2="3.4"/><line x1="1598.6" y1="3.6" x2="1598.6" y2="3.4"/><line x1="1598.7" y1="3.6" x2="1598.7" y2="3.5"/><line x1="1598.8" y1="3.6" x2="1598.8" y2="3.5"/><line x1="1598.8" y1="3.6" x2="1598.9" y2="3.5"/><line x1="1598.9" y1="3.7" x2="1598.9" y2="3.5"/><line x1="1599.0" y1="3.7" x2="1599.0" y2="3.5"/><line x1="1599.1" y1="3.7" x2="1599.1" y2="3.5"/><line x1="1599.1" y1="3.7" x2="1599.2" y2="3.5"/><line x1="1599.2" y1="3.7" x2="1599.3" y2="3.5"/><line x1="1599.3" y1="3.7" x2="1599.3" y2="3.6"/><line x1="1599.4" y1="3.7" x2="1599.4" y2="3.6"/><line x1="1599.5" y1="3.7" x2="1599.5" y2="3.6"/><line x1="1597.8" y1="4.0" x2="1598.0" y2="3.0"/><line x1="1598.0" y1="4.1" x2="1598.0" y2="4.1"/><line x1="1597.9" y1="4.2" x2="1598.0" y2="4.1"/><line x1="1597.9" y1="4.2" x2="1597.7" y2="4.1"/><line x1="1598.0" y1="4.0" x2="1597.8" y2="4.0"/><line x1="1598.0" y1="3.9" x2="1597.9" y2="3.9"/><line x1="1598.0" y1="2.5" x2="1598.1" y2="2.5"/><line x1="1598.3" y1="2.5" x2="1598.3" y2="2.5"/><line x1="1598.3" y1="2.5" x2="1598.3" y2="2.5"/><line x1="1598.3" y1="2.5" x2="1598.3" y2="2.5"/><line x1="1598.3" y1="2.5" x2="1598.3" y2="2.5"/><line x1="1598.3" y1="2.5" x2="1598.3" y2="2.5"/><line x1="1598.3" y1="2.5" x2="1598.3" y2="2.5"/><line x1="1598.3" y1="2.5" x2="1598.3" y2="2.5"/><line x1="1598.3" y1="2.5" x2="1598.3" y2="2.5"/><line x1="1598.1" y1="2.5" x2="1598.0" y2="2.3"/><line x1="1598.0" y1="4.0" x2="1598.0" y2="4.0"/><line x1="1598.0" y1="4.0" x2="1598.0" y2="4.0"/><line x1="1598.0" y1="4.0" x2="1598.0" y2="4.0"/><line x1="1598.0" y1="4.0" x2="1598.0" y2="4.0"/><line x1="1598.0" y1="4.0" x2="1598.0" y2="4.0"/><line x1="1598.0" y1="4.0" x2="1598.0" y2="4.0"/><line x1="1598.0" y1="4.0" x2="1598.0" y2="4.0"/><line x1="1598.0" y1="4.0" x2="1598.0" y2="4.0"/><line x1="1598.3" y1="4.1" x2="1598.3" y2="4.1"/><line x1="1598.3" y1="4.1" x2="1598.3" y2="4.1"/><line x1="1598.3" y1="4.1" x2="1598.3" y2="4.1"/><line x1="1598.3" y1="4.1" x2="1598.3" y2="4.1"/><line x1="1598.3" y1="4.1" x2="1598.3" y2="4.1"/><line x1="1598.3" y1="4.1" x2="1598.3" y2="4.1"/><line x1="1598.3" y1="4.1" x2="1598.3" y2="4.1"/><line x1="1598.3" y1="4.1" x2="1598.3" y2="4.1"/><line x1="1599.6" y1="2.7" x2="1600.0" y2="2.8"/><line x1="1600.0" y1="2.8" x2="1599.8" y2="3.8"/><line x1="1599.8" y1="3.8" x2="1598.1" y2="3.5"/><line x1="1598.1" y1="3.5" x2="1598.0" y2="4.3"/><line x1="1598.0" y1="4.3" x2="1597.7" y2="4.2"/><line x1="1597.7" y1="4.2" x2="1598.0" y2="2.2"/><line x1="1598.0" y1="2.2" x2="1599.6" y2="2.5"/><line x1="1599.6" y1="2.5" x2="1599.6" y2="2.7"/><line x1="1598.2" y1="2.4" x2="1598.1" y2="2.3"/><line x1="1598.2" y1="2.4" x2="1598.2" y2="2.3"/><line x1="1599.7" y1="2.9" x2="1599.9" y2="2.9"/><line x1="1599.7" y1="3.0" x2="1599.9" y2="3.0"/><line x1="1599.7" y1="3.0" x2="1599.9" y2="3.1"/><line x1="1599.7" y1="3.1" x2="1599.8" y2="3.1"/><line x1="1599.7" y1="3.2" x2="1599.8" y2="3.2"/><line x1="1599.7" y1="3.3" x2="1599.8" y2="3.3"/><line x1="1599.6" y1="3.3" x2="1599.8" y2="3.4"/><line x1="1599.6" y1="3.4" x2="1599.8" y2="3.5"/><line x1="1599.6" y1="3.5" x2="1599.8" y2="3.5"/><line x1="1599.5" y1="3.1" x2="1599.5" y2="2.8"/><line x1="1599.4" y1="3.1" x2="1599.4" y2="2.9"/><line x1="1599.3" y1="3.1" x2="1599.3" y2="2.9"/><line x1="1599.2" y1="3.0" x2="1599.2" y2="2.9"/><line x1="1599.1" y1="3.0" x2="1599.2" y2="2.9"/><line x1="1599.1" y1="3.0" x2="1599.1" y2="2.9"/><line x1="1599.0" y1="3.0" x2="1599.0" y2="2.8"/><line x1="1598.9" y1="3.0" x2="1598.9" y2="2.8"/><line x1="1598.8" y1="3.0" x2="1598.8" y2="2.8"/><line x1="1598.7" y1="3.0" x2="1598.8" y2="2.8"/><line x1="1598.7" y1="3.0" x2="1598.7" y2="2.8"/><line x1="1598.6" y1="2.9" x2="1598.6" y2="2.8"/><line x1="1598.5" y1="2.9" x2="1598.5" y2="2.8"/><line x1="1598.4" y1="2.9" x2="1598.5" y2="2.8"/><line x1="1598.4" y1="2.9" x2="1598.4" y2="2.7"/><line x1="1598.3" y1="2.9" x2="1598.3" y2="2.7"/><line x1="1599.4" y1="2.9" x2="1599.4" y2="2.7"/><line x1="1599.5" y1="2.9" x2="1599.6" y2="3.0"/><line x1="1598.1" y1="3.0" x2="1598.0" y2="4.0"/><line x1="1599.5" y1="2.9" x2="1599.6" y2="2.9"/><line x1="1598.9" y1="3.4" x2="1599.0" y2="3.1"/><line x1="1599.0" y1="3.4" x2="1599.0" y2="3.1"/><line x1="1599.1" y1="3.4" x2="1599.1" y2="3.1"/><line x1="1599.1" y1="3.4" x2="1599.2" y2="3.1"/><line x1="1599.2" y1="3.5" x2="1599.3" y2="3.1"/><line x1="1599.3" y1="3.5" x2="1599.3" y2="3.1"/><line x1="1599.4" y1="3.5" x2="1599.4" y2="3.2"/><line x1="1599.5" y1="3.5" x2="1599.5" y2="3.2"/><line x1="1598.8" y1="3.4" x2="1598.9" y2="3.1"/><line x1="1598.7" y1="3.4" x2="1598.8" y2="3.1"/><line x1="1598.7" y1="3.4" x2="1598.7" y2="3.0"/><line x1="1598.6" y1="3.4" x2="1598.6" y2="3.0"/><line x1="1598.5" y1="3.4" x2="1598.6" y2="3.0"/><line x1="1598.4" y1="3.3" x2="1598.5" y2="3.0"/><line x1="1598.3" y1="3.3" x2="1598.4" y2="3.0"/><line x1="1598.3" y1="3.3" x2="1598.3" y2="3.0"/><line x1="1599.6" y1="3.5" x2="1599.6" y2="3.5"/><line x1="1599.6" y1="3.5" x2="1599.6" y2="3.5"/><line x1="1599.6" y1="3.5" x2="1599.6" y2="3.5"/><line x1="1599.6" y1="3.5" x2="1599.6" y2="3.5"/><line x1="1599.6" y1="3.5" x2="1599.6" y2="3.5"/><line x1="1599.6" y1="3.5" x2="1599.6" y2="3.5"/><line x1="1599.6" y1="3.5" x2="1599.6" y2="3.5"/><line x1="1599.6" y1="3.5" x2="1599.6" y2="3.5"/><line x1="1599.6" y1="3.5" x2="1599.6" y2="3.5"/><line x1="1599.6" y1="3.5" x2="1599.6" y2="3.5"/><line x1="1599.6" y1="3.5" x2="1599.6" y2="3.5"/><line x1="1599.6" y1="3.5" x2="1599.6" y2="3.5"/><line x1="1599.6" y1="3.5" x2="1599.6" y2="3.5"/><line x1="1599.6" y1="3.5" x2="1599.5" y2="3.5"/><line x1="1599.5" y1="3.5" x2="1599.5" y2="3.5"/><line x1="1599.5" y1="3.5" x2="1599.5" y2="3.5"/><line x1="1599.5" y1="3.5" x2="1599.5" y2="3.5"/><line x1="1599.5" y1="3.5" x2="1599.5" y2="3.5"/><line x1="1599.5" y1="3.5" x2="1599.5" y2="3.5"/><line x1="1599.5" y1="3.5" x2="1599.5" y2="3.5"/><line x1="1599.5" y1="3.5" x2="1599.5" y2="3.5"/><line x1="1599.5" y1="3.5" x2="1599.5" y2="3.5"/><line x1="1599.5" y1="3.5" x2="1599.5" y2="3.5"/><line x1="1599.5" y1="3.5" x2="1599.5" y2="3.6"/><line x1="1599.5" y1="3.6" x2="1599.5" y2="3.6"/><line x1="1599.5" y1="3.6" x2="1599.5" y2="3.6"/><line x1="1599.5" y1="3.6" x2="1599.5" y2="3.6"/><line x1="1599.5" y1="3.6" x2="1599.5" y2="3.6"/><line x1="1599.5" y1="3.6" x2="1599.5" y2="3.6"/><line x1="1599.5" y1="3.6" x2="1599.5" y2="3.6"/><line x1="1599.5" y1="3.6" x2="1599.5" y2="3.6"/><line x1="1599.5" y1="3.6" x2="1599.5" y2="3.6"/><line x1="1599.5" y1="3.6" x2="1599.5" y2="3.6"/><line x1="1599.5" y1="3.6" x2="1599.6" y2="3.6"/><line x1="1599.6" y1="3.6" x2="1599.6" y2="3.6"/><line x1="1599.6" y1="3.6" x2="1599.6" y2="3.6"/><line x1="1599.6" y1="3.6" x2="1599.6" y2="3.6"/><line x1="1599.6" y1="3.6" x2="1599.6" y2="3.6"/><line x1="1599.6" y1="3.6" x2="1599.6" y2="3.6"/><line x1="1599.6" y1="3.6" x2="1599.6" y2="3.6"/><line x1="1599.6" y1="3.6" x2="1599.6" y2="3.6"/><line x1="1599.6" y1="3.6" x2="1599.6" y2="3.6"/><line x1="1599.6" y1="3.6" x2="1599.6" y2="3.6"/><line x1="1599.6" y1="3.6" x2="1599.6" y2="3.6"/><line x1="1599.6" y1="3.6" x2="1599.6" y2="3.6"/><line x1="1599.6" y1="3.6" x2="1599.6" y2="3.6"/><line x1="1599.6" y1="3.6" x2="1599.6" y2="3.6"/><line x1="1599.6" y1="3.6" x2="1599.6" y2="3.5"/><line x1="1599.6" y1="3.6" x2="1599.8" y2="3.7"/><line x1="1599.5" y1="2.7" x2="1599.5" y2="2.5"/><line x1="1599.4" y1="2.7" x2="1599.5" y2="2.5"/><line x1="1599.4" y1="2.6" x2="1599.4" y2="2.5"/><line x1="1599.3" y1="2.6" x2="1599.3" y2="2.4"/><line x1="1599.2" y1="2.6" x2="1599.2" y2="2.4"/><line x1="1599.1" y1="2.6" x2="1599.2" y2="2.4"/><line x1="1599.1" y1="2.6" x2="1599.1" y2="2.4"/><line x1="1599.0" y1="2.6" x2="1599.0" y2="2.4"/><line x1="1598.9" y1="2.6" x2="1598.9" y2="2.4"/><line x1="1598.8" y1="2.6" x2="1598.9" y2="2.4"/><line x1="1598.8" y1="2.6" x2="1598.8" y2="2.4"/><line x1="1598.7" y1="2.5" x2="1598.7" y2="2.4"/><line x1="1598.6" y1="2.5" x2="1598.6" y2="2.3"/><line x1="1598.5" y1="2.5" x2="1598.6" y2="2.3"/><line x1="1598.5" y1="2.5" x2="1598.5" y2="2.3"/><line x1="1598.4" y1="2.5" x2="1598.4" y2="2.3"/><line x1="1598.3" y1="2.5" x2="1598.3" y2="2.3"/><line x1="1598.2" y1="3.4" x2="1599.5" y2="3.6"/><line x1="1598.2" y1="3.3" x2="1599.5" y2="3.5"/><line x1="1598.2" y1="3.1" x2="1599.6" y2="3.3"/><line x1="1598.3" y1="3.0" x2="1599.6" y2="3.2"/><line x1="1598.2" y1="2.7" x2="1599.5" y2="2.9"/><line x1="1598.0" y1="2.3" x2="1599.6" y2="2.5"/><line x1="1599.7" y1="2.8" x2="1599.9" y2="2.8"/><line x1="1598.3" y1="2.5" x2="1599.3" y2="2.6"/><line x1="1599.3" y1="2.6" x2="1599.6" y2="2.7"/><line x1="1599.6" y1="2.7" x2="1599.6" y2="2.7"/><line x1="1600.0" y1="2.3" x2="1600.0" y2="2.3"/><line x1="1600.0" y1="2.3" x2="1600.0" y2="2.3"/><line x1="1600.0" y1="2.3" x2="1600.0" y2="2.3"/><line x1="1600.0" y1="2.3" x2="1600.0" y2="2.3"/><line x1="1600.0" y1="2.3" x2="1600.0" y2="2.3"/><line x1="1600.0" y1="2.3" x2="1600.0" y2="2.3"/><line x1="1600.0" y1="2.3" x2="1600.0" y2="2.3"/><line x1="1600.0" y1="2.3" x2="1600.0" y2="2.3"/><line x1="1599.7" y1="3.0" x2="1599.7" y2="3.0"/><line x1="1599.7" y1="3.0" x2="1599.7" y2="3.0"/><line x1="1599.7" y1="3.0" x2="1599.7" y2="3.0"/><line x1="1599.7" y1="3.0" x2="1599.7" y2="3.0"/><line x1="1599.7" y1="3.0" x2="1599.7" y2="3.0"/><line x1="1599.7" y1="3.0" x2="1599.7" y2="3.0"/><line x1="1599.7" y1="3.0" x2="1599.7" y2="3.0"/><line x1="1599.7" y1="3.0" x2="1599.7" y2="3.0"/><line x1="1599.6" y1="3.2" x2="1599.5" y2="3.5"/><line x1="1598.2" y1="3.3" x2="1598.2" y2="3.1"/><line x1="1599.6" y1="3.2" x2="1599.6" y2="3.2"/><line x1="1599.5" y1="3.5" x2="1599.5" y2="3.5"/><line x1="1598.2" y1="3.3" x2="1598.2" y2="3.3"/><line x1="1598.2" y1="3.4" x2="1598.2" y2="3.4"/><line x1="1599.6" y1="3.5" x2="1599.7" y2="2.8"/><line x1="1599.7" y1="2.8" x2="1599.7" y2="2.8"/><line x1="1599.7" y1="2.8" x2="1599.9" y2="2.8"/><line x1="1599.9" y1="2.8" x2="1599.9" y2="2.9"/><line x1="1599.5" y1="3.8" x2="1599.5" y2="3.6"/><line x1="1599.7" y1="3.8" x2="1599.6" y2="3.6"/><line x1="1599.1" y1="2.7" x2="1599.1" y2="2.7"/><line x1="1599.1" y1="2.7" x2="1599.1" y2="2.7"/><line x1="1599.1" y1="2.7" x2="1599.1" y2="2.7"/><line x1="1599.1" y1="2.7" x2="1599.1" y2="2.7"/><line x1="1599.1" y1="2.7" x2="1599.1" y2="2.7"/><line x1="1599.1" y1="2.7" x2="1599.1" y2="2.7"/><line x1="1599.1" y1="2.7" x2="1599.1" y2="2.7"/><line x1="1599.1" y1="2.7" x2="1599.1" y2="2.7"/><line x1="1598.1" y1="2.9" x2="1598.1" y2="2.9"/><line x1="1598.1" y1="2.9" x2="1598.1" y2="2.8"/><line x1="1598.1" y1="2.8" x2="1598.1" y2="2.7"/><line x1="1598.1" y1="2.7" x2="1598.1" y2="2.7"/><line x1="1598.1" y1="2.7" x2="1598.0" y2="2.6"/><line x1="1598.0" y1="2.6" x2="1598.0" y2="2.6"/><line x1="1598.0" y1="2.6" x2="1597.9" y2="2.5"/><line x1="1597.9" y1="2.5" x2="1597.9" y2="2.5"/><line x1="1597.9" y1="2.5" x2="1597.8" y2="2.5"/><line x1="1597.8" y1="2.5" x2="1597.7" y2="2.5"/><line x1="1597.7" y1="2.5" x2="1597.7" y2="2.5"/><line x1="1597.7" y1="2.5" x2="1597.6" y2="2.5"/><line x1="1597.6" y1="2.5" x2="1597.6" y2="2.5"/><line x1="1597.6" y1="2.5" x2="1597.5" y2="2.5"/><line x1="1597.5" y1="2.5" x2="1597.4" y2="2.5"/><line x1="1597.4" y1="2.5" x2="1597.4" y2="2.6"/><line x1="1597.4" y1="2.6" x2="1597.3" y2="2.6"/><line x1="1597.3" y1="2.6" x2="1597.3" y2="2.6"/><line x1="1597.3" y1="2.6" x2="1597.2" y2="2.7"/><line x1="1597.2" y1="2.7" x2="1597.2" y2="2.7"/><line x1="1597.2" y1="2.7" x2="1597.2" y2="2.8"/><line x1="1597.2" y1="2.8" x2="1597.2" y2="2.9"/><line x1="1597.2" y1="2.9" x2="1597.2" y2="2.9"/><line x1="1597.2" y1="2.9" x2="1597.2" y2="3.0"/><line x1="1597.2" y1="3.0" x2="1597.2" y2="3.1"/><line x1="1597.2" y1="3.1" x2="1597.2" y2="3.1"/><line x1="1597.2" y1="3.1" x2="1597.2" y2="3.2"/><line x1="1597.2" y1="3.2" x2="1597.2" y2="3.2"/><line x1="1597.2" y1="3.2" x2="1597.3" y2="3.3"/><line x1="1597.3" y1="3.3" x2="1597.3" y2="3.3"/><line x1="1597.3" y1="3.3" x2="1597.4" y2="3.4"/><line x1="1597.4" y1="3.4" x2="1597.4" y2="3.4"/><line x1="1597.4" y1="3.4" x2="1597.5" y2="3.4"/><line x1="1597.5" y1="3.4" x2="1597.5" y2="3.5"/><line x1="1597.5" y1="3.5" x2="1597.6" y2="3.5"/><line x1="1597.6" y1="3.5" x2="1597.7" y2="3.5"/><line x1="1597.7" y1="3.5" x2="1597.7" y2="3.5"/><line x1="1597.7" y1="3.5" x2="1597.8" y2="3.4"/><line x1="1597.8" y1="3.4" x2="1597.9" y2="3.4"/><line x1="1597.9" y1="3.4" x2="1597.9" y2="3.4"/><line x1="1597.9" y1="3.4" x2="1598.0" y2="3.4"/><line x1="1598.0" y1="3.4" x2="1598.0" y2="3.3"/><line x1="1598.0" y1="3.3" x2="1598.1" y2="3.3"/><line x1="1598.1" y1="3.3" x2="1598.1" y2="3.2"/><line x1="1598.1" y1="3.2" x2="1598.1" y2="3.2"/><line x1="1598.1" y1="3.2" x2="1598.1" y2="3.1"/><line x1="1598.1" y1="3.1" x2="1598.1" y2="3.0"/><line x1="1598.1" y1="3.0" x2="1598.2" y2="3.0"/><line x1="1598.1" y1="2.6" x2="1598.1" y2="2.7"/><line x1="1598.0" y1="3.9" x2="1597.9" y2="3.9"/><line x1="1598.0" y1="3.8" x2="1597.9" y2="3.8"/><line x1="1598.0" y1="3.7" x2="1597.9" y2="3.7"/><line x1="1598.1" y1="3.6" x2="1597.9" y2="3.6"/><line x1="1598.1" y1="3.6" x2="1597.9" y2="3.5"/><line x1="1598.1" y1="3.5" x2="1597.9" y2="3.5"/><line x1="1598.1" y1="3.4" x2="1597.9" y2="3.4"/><line x1="1598.1" y1="3.3" x2="1598.0" y2="3.3"/><line x1="1598.1" y1="3.3" x2="1598.0" y2="3.2"/><line x1="1598.1" y1="3.2" x2="1598.0" y2="3.2"/><line x1="1598.1" y1="3.1" x2="1598.0" y2="3.1"/><line x1="1598.2" y1="3.0" x2="1597.9" y2="2.9"/><line x1="1598.1" y1="2.9" x2="1597.9" y2="2.9"/><line x1="1598.1" y1="2.8" x2="1597.9" y2="2.8"/><line x1="1598.1" y1="2.7" x2="1598.0" y2="2.7"/><line x1="1598.1" y1="2.7" x2="1598.0" y2="2.6"/><line x1="1598.1" y1="2.6" x2="1598.0" y2="2.6"/><line x1="1598.1" y1="3.0" x2="1597.9" y2="3.0"/><line x1="1598.2" y1="2.9" x2="1598.2" y2="2.9"/><line x1="1598.2" y1="2.9" x2="1598.2" y2="2.9"/><line x1="1598.2" y1="2.9" x2="1598.2" y2="2.9"/><line x1="1598.2" y1="2.9" x2="1598.2" y2="2.9"/><line x1="1598.2" y1="2.9" x2="1598.2" y2="2.9"/><line x1="1598.2" y1="2.9" x2="1598.2" y2="2.9"/><line x1="1598.2" y1="2.9" x2="1598.2" y2="2.9"/><line x1="1598.2" y1="2.9" x2="1598.2" y2="2.9"/><line x1="1598.3" y1="3.0" x2="1598.2" y2="3.0"/><line x1="1598.3" y1="2.7" x2="1598.3" y2="2.6"/><line x1="1598.0" y1="4.1" x2="1597.8" y2="4.0"/><line x1="1597.9" y1="4.0" x2="1597.8" y2="4.1"/><line x1="1598.2" y1="2.7" x2="1598.2" y2="2.6"/><line x1="1598.2" y1="2.6" x2="1598.2" y2="2.6"/><line x1="1598.2" y1="2.6" x2="1599.3" y2="2.7"/><line x1="1599.3" y1="2.7" x2="1599.3" y2="2.7"/><line x1="1599.3" y1="2.7" x2="1599.5" y2="2.8"/><line x1="1599.5" y1="2.8" x2="1599.6" y2="2.8"/><line x1="1599.6" y1="2.8" x2="1599.6" y2="2.8"/><line x1="1599.6" y1="2.8" x2="1599.6" y2="2.8"/><line x1="1599.6" y1="2.8" x2="1599.6" y2="3.1"/><line x1="1599.6" y1="3.1" x2="1599.6" y2="3.1"/><line x1="1599.6" y1="3.1" x2="1598.2" y2="2.9"/><line x1="1598.2" y1="2.9" x2="1598.2" y2="2.9"/><line x1="1598.2" y1="2.9" x2="1598.2" y2="2.8"/><line x1="1598.2" y1="2.8" x2="1598.2" y2="2.7"/></g>
<g data-layer="PROP CENTER LINE" stroke="#52503f" stroke-width="0.7" fill="none"><line x1="1598.2" y1="3.0" x2="1598.0" y2="4.2"/><line x1="1598.1" y1="3.3" x2="1599.6" y2="3.6"/><line x1="1598.2" y1="2.9" x2="1599.6" y2="3.1"/><line x1="1598.2" y1="2.9" x2="1598.2" y2="2.8"/><line x1="1598.2" y1="2.8" x2="1598.2" y2="2.8"/><line x1="1598.2" y1="2.8" x2="1598.1" y2="2.7"/><line x1="1598.1" y1="2.7" x2="1598.1" y2="2.7"/><line x1="1598.1" y1="2.7" x2="1598.0" y2="2.6"/><line x1="1598.0" y1="2.6" x2="1598.0" y2="2.6"/><line x1="1598.0" y1="2.6" x2="1597.9" y2="2.5"/><line x1="1597.9" y1="2.5" x2="1597.9" y2="2.5"/><line x1="1597.9" y1="2.5" x2="1597.8" y2="2.5"/><line x1="1597.8" y1="2.5" x2="1597.7" y2="2.4"/><line x1="1597.7" y1="2.4" x2="1597.7" y2="2.4"/><line x1="1597.7" y1="2.4" x2="1597.6" y2="2.4"/><line x1="1597.6" y1="2.4" x2="1597.5" y2="2.4"/><line x1="1597.5" y1="2.4" x2="1597.5" y2="2.5"/><line x1="1597.5" y1="2.5" x2="1597.4" y2="2.5"/><line x1="1597.4" y1="2.5" x2="1597.4" y2="2.5"/><line x1="1597.4" y1="2.5" x2="1597.3" y2="2.6"/><line x1="1597.3" y1="2.6" x2="1597.3" y2="2.6"/><line x1="1597.3" y1="2.6" x2="1597.2" y2="2.7"/><line x1="1597.2" y1="2.7" x2="1597.2" y2="2.7"/><line x1="1597.2" y1="2.7" x2="1597.2" y2="2.8"/><line x1="1597.2" y1="2.8" x2="1597.1" y2="2.9"/><line x1="1597.1" y1="2.9" x2="1597.1" y2="2.9"/><line x1="1597.1" y1="2.9" x2="1597.1" y2="3.0"/><line x1="1597.1" y1="3.0" x2="1597.1" y2="3.1"/><line x1="1597.1" y1="3.1" x2="1597.1" y2="3.1"/><line x1="1597.1" y1="3.1" x2="1597.2" y2="3.2"/><line x1="1597.2" y1="3.2" x2="1597.2" y2="3.3"/><line x1="1597.2" y1="3.3" x2="1597.2" y2="3.3"/><line x1="1597.2" y1="3.3" x2="1597.3" y2="3.4"/><line x1="1597.3" y1="3.4" x2="1597.3" y2="3.4"/><line x1="1597.3" y1="3.4" x2="1597.4" y2="3.4"/><line x1="1597.4" y1="3.4" x2="1597.5" y2="3.5"/><line x1="1597.5" y1="3.5" x2="1597.5" y2="3.5"/><line x1="1597.5" y1="3.5" x2="1597.6" y2="3.5"/><line x1="1597.6" y1="3.5" x2="1597.7" y2="3.5"/><line x1="1597.7" y1="3.5" x2="1597.7" y2="3.5"/><line x1="1597.7" y1="3.5" x2="1597.8" y2="3.5"/><line x1="1597.8" y1="3.5" x2="1597.9" y2="3.5"/><line x1="1597.9" y1="3.5" x2="1597.9" y2="3.4"/><line x1="1597.9" y1="3.4" x2="1598.0" y2="3.4"/><line x1="1598.0" y1="3.4" x2="1598.0" y2="3.3"/><line x1="1598.0" y1="3.3" x2="1598.1" y2="3.3"/><line x1="1598.1" y1="3.3" x2="1598.1" y2="3.2"/><line x1="1598.1" y1="3.2" x2="1598.2" y2="3.2"/><line x1="1598.2" y1="3.2" x2="1598.2" y2="3.1"/><line x1="1598.2" y1="3.1" x2="1598.2" y2="3.0"/><line x1="1598.2" y1="3.0" x2="1598.2" y2="3.0"/><line x1="1599.1" y1="2.7" x2="1599.1" y2="2.7"/><line x1="1599.1" y1="2.7" x2="1599.1" y2="2.7"/><line x1="1599.1" y1="2.7" x2="1599.1" y2="2.7"/><line x1="1599.1" y1="2.7" x2="1599.1" y2="2.7"/><line x1="1599.1" y1="2.7" x2="1599.1" y2="2.7"/><line x1="1599.1" y1="2.7" x2="1599.1" y2="2.7"/><line x1="1599.1" y1="2.7" x2="1599.1" y2="2.7"/><line x1="1599.1" y1="2.7" x2="1599.1" y2="2.7"/><line x1="1598.2" y1="2.5" x2="1598.2" y2="2.7"/><line x1="1598.2" y1="2.5" x2="1599.3" y2="2.7"/><line x1="1599.3" y1="2.7" x2="1599.5" y2="2.7"/><line x1="1599.6" y1="3.0" x2="1599.6" y2="3.0"/><line x1="1599.6" y1="3.0" x2="1599.6" y2="3.0"/><line x1="1599.6" y1="3.0" x2="1599.6" y2="3.0"/><line x1="1599.6" y1="3.0" x2="1599.6" y2="3.0"/><line x1="1599.6" y1="3.0" x2="1599.6" y2="3.0"/><line x1="1599.6" y1="3.0" x2="1599.6" y2="3.0"/><line x1="1599.6" y1="3.0" x2="1599.6" y2="3.0"/><line x1="1599.6" y1="3.0" x2="1599.6" y2="3.0"/><line x1="1600.0" y1="2.3" x2="1600.0" y2="2.3"/><line x1="1600.0" y1="2.3" x2="1600.0" y2="2.3"/><line x1="1600.0" y1="2.3" x2="1600.0" y2="2.3"/><line x1="1600.0" y1="2.3" x2="1600.0" y2="2.3"/><line x1="1600.0" y1="2.3" x2="1600.0" y2="2.3"/><line x1="1600.0" y1="2.3" x2="1600.0" y2="2.3"/><line x1="1600.0" y1="2.3" x2="1600.0" y2="2.3"/><line x1="1600.0" y1="2.3" x2="1600.0" y2="2.3"/><line x1="1599.6" y1="2.7" x2="1599.9" y2="2.8"/><line x1="1599.7" y1="2.7" x2="1599.6" y2="3.6"/><line x1="1581.0" y1="0.2" x2="1581.1" y2="0.2"/><line x1="1581.5" y1="-0.2" x2="1581.5" y2="-0.2"/><line x1="1581.5" y1="-0.2" x2="1581.5" y2="-0.2"/><line x1="1581.5" y1="-0.2" x2="1581.5" y2="-0.2"/><line x1="1581.5" y1="-0.2" x2="1581.5" y2="-0.2"/><line x1="1581.5" y1="-0.2" x2="1581.5" y2="-0.2"/><line x1="1581.5" y1="-0.2" x2="1581.5" y2="-0.2"/><line x1="1581.5" y1="-0.2" x2="1581.5" y2="-0.2"/><line x1="1581.5" y1="-0.2" x2="1581.5" y2="-0.2"/><line x1="1579.6" y1="0.5" x2="1579.5" y2="1.7"/><line x1="1580.8" y1="0.1" x2="1581.0" y2="0.2"/><line x1="1581.1" y1="0.5" x2="1581.1" y2="0.5"/><line x1="1581.1" y1="0.5" x2="1581.1" y2="0.5"/><line x1="1581.1" y1="0.5" x2="1581.1" y2="0.5"/><line x1="1581.1" y1="0.5" x2="1581.1" y2="0.5"/><line x1="1581.1" y1="0.5" x2="1581.1" y2="0.5"/><line x1="1581.1" y1="0.5" x2="1581.1" y2="0.5"/><line x1="1581.1" y1="0.5" x2="1581.1" y2="0.5"/><line x1="1581.1" y1="0.5" x2="1581.1" y2="0.5"/><line x1="1581.1" y1="0.2" x2="1581.0" y2="1.0"/><line x1="1579.6" y1="0.8" x2="1581.0" y2="1.0"/><line x1="1579.6" y1="0.4" x2="1581.1" y2="0.6"/><line x1="1579.6" y1="-0.0" x2="1580.8" y2="0.1"/><line x1="1580.5" y1="0.2" x2="1580.5" y2="0.2"/><line x1="1580.5" y1="0.2" x2="1580.5" y2="0.2"/><line x1="1580.5" y1="0.2" x2="1580.5" y2="0.2"/><line x1="1580.5" y1="0.2" x2="1580.5" y2="0.2"/><line x1="1580.5" y1="0.2" x2="1580.5" y2="0.2"/><line x1="1580.5" y1="0.2" x2="1580.5" y2="0.2"/><line x1="1580.5" y1="0.2" x2="1580.5" y2="0.2"/><line x1="1580.5" y1="0.2" x2="1580.5" y2="0.2"/><line x1="1579.6" y1="0.4" x2="1579.6" y2="0.3"/><line x1="1579.6" y1="0.3" x2="1579.6" y2="0.2"/><line x1="1579.6" y1="0.2" x2="1579.6" y2="0.2"/><line x1="1579.6" y1="0.2" x2="1579.5" y2="0.1"/><line x1="1579.5" y1="0.1" x2="1579.5" y2="0.1"/><line x1="1579.5" y1="0.1" x2="1579.5" y2="0.0"/><line x1="1579.5" y1="0.0" x2="1579.4" y2="-0.0"/><line x1="1579.4" y1="-0.0" x2="1579.3" y2="-0.1"/><line x1="1579.3" y1="-0.1" x2="1579.3" y2="-0.1"/><line x1="1579.3" y1="-0.1" x2="1579.2" y2="-0.1"/><line x1="1579.2" y1="-0.1" x2="1579.1" y2="-0.1"/><line x1="1579.1" y1="-0.1" x2="1579.1" y2="-0.1"/><line x1="1579.1" y1="-0.1" x2="1579.0" y2="-0.1"/><line x1="1579.0" y1="-0.1" x2="1578.9" y2="-0.1"/><line x1="1578.9" y1="-0.1" x2="1578.9" y2="-0.1"/><line x1="1578.9" y1="-0.1" x2="1578.8" y2="-0.0"/><line x1="1578.8" y1="-0.0" x2="1578.8" y2="0.0"/><line x1="1578.8" y1="0.0" x2="1578.7" y2="0.1"/><line x1="1578.7" y1="0.1" x2="1578.7" y2="0.1"/><line x1="1578.7" y1="0.1" x2="1578.6" y2="0.2"/><line x1="1578.6" y1="0.2" x2="1578.6" y2="0.2"/><line x1="1578.6" y1="0.2" x2="1578.6" y2="0.3"/><line x1="1578.6" y1="0.3" x2="1578.6" y2="0.4"/><line x1="1578.6" y1="0.4" x2="1578.6" y2="0.4"/><line x1="1578.6" y1="0.4" x2="1578.6" y2="0.5"/><line x1="1578.6" y1="0.5" x2="1578.6" y2="0.6"/><line x1="1578.6" y1="0.6" x2="1578.6" y2="0.6"/><line x1="1578.6" y1="0.6" x2="1578.7" y2="0.7"/><line x1="1578.7" y1="0.7" x2="1578.7" y2="0.8"/><line x1="1578.7" y1="0.8" x2="1578.8" y2="0.8"/><line x1="1578.8" y1="0.8" x2="1578.8" y2="0.9"/><line x1="1578.8" y1="0.9" x2="1578.9" y2="0.9"/><line x1="1578.9" y1="0.9" x2="1578.9" y2="0.9"/><line x1="1578.9" y1="0.9" x2="1579.0" y2="0.9"/><line x1="1579.0" y1="0.9" x2="1579.1" y2="0.9"/><line x1="1579.1" y1="0.9" x2="1579.1" y2="0.9"/><line x1="1579.1" y1="0.9" x2="1579.2" y2="0.9"/><line x1="1579.2" y1="0.9" x2="1579.3" y2="0.9"/><line x1="1579.3" y1="0.9" x2="1579.3" y2="0.9"/><line x1="1579.3" y1="0.9" x2="1579.4" y2="0.9"/><line x1="1579.4" y1="0.9" x2="1579.4" y2="0.8"/><line x1="1579.4" y1="0.8" x2="1579.5" y2="0.8"/><line x1="1579.5" y1="0.8" x2="1579.5" y2="0.7"/><line x1="1579.5" y1="0.7" x2="1579.6" y2="0.7"/><line x1="1579.6" y1="0.7" x2="1579.6" y2="0.6"/><line x1="1579.6" y1="0.6" x2="1579.6" y2="0.5"/><line x1="1579.6" y1="0.5" x2="1579.6" y2="0.5"/><line x1="1579.6" y1="0.5" x2="1579.6" y2="0.4"/><line x1="1579.6" y1="-0.0" x2="1579.6" y2="0.1"/><line x1="1581.1" y1="0.2" x2="1581.4" y2="0.2"/><line x1="1579.2" y1="1.6" x2="1579.2" y2="1.5"/></g>
<g data-layer="STX Logo" stroke="#52503f" stroke-width="0.7" fill="none"><line x1="0.1" y1="25352.0" x2="0.0" y2="25352.0"/><line x1="0.1" y1="25352.0" x2="0.0" y2="25352.0"/></g>
<g data-layer="tblock" stroke="#52503f" stroke-width="0.7" fill="none"><line x1="0.0" y1="25352.0" x2="0.0" y2="25352.0"/><line x1="0.0" y1="25352.0" x2="0.1" y2="25352.0"/><line x1="0.1" y1="25352.0" x2="0.1" y2="25352.0"/><line x1="0.1" y1="25352.0" x2="0.0" y2="25352.0"/></g>
<g data-layer="TEXT" stroke="#52503f" stroke-width="0.7" fill="none"><line x1="0.0" y1="25351.9" x2="0.0" y2="25351.9"/><line x1="0.0" y1="25351.9" x2="0.0" y2="25351.9"/><line x1="0.0" y1="25351.9" x2="0.0" y2="25351.9"/><line x1="0.0" y1="25351.9" x2="0.0" y2="25351.9"/><line x1="0.0" y1="25351.9" x2="0.0" y2="25351.9"/><line x1="0.0" y1="25351.9" x2="0.0" y2="25351.9"/><line x1="0.0" y1="25351.9" x2="0.0" y2="25351.9"/><line x1="0.0" y1="25351.9" x2="0.0" y2="25351.9"/></g>
<g data-layer="MONUMENTS" stroke="#a8a496" stroke-width="0.7" fill="none"><line x1="0.1" y1="25351.9" x2="0.1" y2="25351.9"/><line x1="0.1" y1="25351.9" x2="0.2" y2="25351.9"/><line x1="0.2" y1="25351.9" x2="0.2" y2="25351.9"/><line x1="0.2" y1="25351.9" x2="0.2" y2="25351.9"/><line x1="0.2" y1="25351.9" x2="0.2" y2="25351.9"/><line x1="0.2" y1="25351.9" x2="0.2" y2="25351.9"/><line x1="0.2" y1="25351.9" x2="0.2" y2="25351.9"/><line x1="0.2" y1="25351.9" x2="0.2" y2="25351.9"/><line x1="0.2" y1="25351.9" x2="0.2" y2="25351.9"/><line x1="0.2" y1="25351.9" x2="0.2" y2="25351.9"/></g>
<g data-layer="MV" stroke="#52503f" stroke-width="0.7" fill="none"><line x1="0.2" y1="25351.9" x2="0.2" y2="25351.9"/><line x1="0.2" y1="25351.9" x2="0.2" y2="25351.9"/><line x1="0.2" y1="25351.9" x2="0.2" y2="25351.9"/><line x1="0.2" y1="25351.9" x2="0.2" y2="25351.9"/></g>
<g data-layer="PROP_PAVING" stroke="#3d2c15" stroke-width="0.7" fill="none"><line x1="0.2" y1="25351.9" x2="0.2" y2="25351.9"/><line x1="0.2" y1="25351.9" x2="0.2" y2="25351.9"/><line x1="0.2" y1="25351.9" x2="0.2" y2="25351.9"/><line x1="0.2" y1="25351.9" x2="0.2" y2="25351.9"/><line x1="0.2" y1="25351.9" x2="0.2" y2="25351.9"/><line x1="0.2" y1="25351.9" x2="0.2" y2="25351.9"/><line x1="0.2" y1="25351.9" x2="0.2" y2="25351.9"/><line x1="0.2" y1="25351.9" x2="0.2" y2="25351.9"/><line x1="0.2" y1="25351.9" x2="0.2" y2="25351.9"/><line x1="0.2" y1="25351.9" x2="0.2" y2="25351.9"/></g>
</svg>